<svg xmlns="http://www.w3.org/2000/svg" viewBox="0 0 100 100" width="54" height="54">
  <path d="M22 50 Q9 44 6 52 Q9 58 22 52 Z" fill="#D38E3F" stroke="#5b3a1a" stroke-width="1.2"/>
  
  <g fill="#A66A2C" stroke="#5b3a1a" stroke-width="1">
    <ellipse cx="60" cy="24" rx="5" ry="10" transform="rotate(35 60 24)"/>
    <ellipse cx="60" cy="76" rx="5" ry="10" transform="rotate(-35 60 76)"/>
    <ellipse cx="30" cy="24" rx="5" ry="10" transform="rotate(-35 30 24)"/>
    <ellipse cx="30" cy="76" rx="5" ry="10" transform="rotate(35 30 76)"/>
  </g>
  <ellipse cx="47" cy="50" rx="26" ry="16" fill="#D38E3F" stroke="#5b3a1a" stroke-width="1.4"/>
  <ellipse cx="67" cy="37" rx="7" ry="5" transform="rotate(-25 67 37)" fill="#A66A2C" stroke="#5b3a1a" stroke-width="1"/>
  <ellipse cx="67" cy="63" rx="7" ry="5" transform="rotate(25 67 63)" fill="#A66A2C" stroke="#5b3a1a" stroke-width="1"/>
  <circle cx="70" cy="50" r="13" fill="#D38E3F" stroke="#5b3a1a" stroke-width="1.4"/>
  <ellipse cx="81" cy="50" rx="7" ry="6" fill="#D38E3F" stroke="#5b3a1a" stroke-width="1.2"/>
  <ellipse cx="87" cy="50" rx="3.4" ry="3" fill="#241a12"/>
  
  <g stroke="#241a12" stroke-width="1.2" fill="none" stroke-linecap="round">
    <path d="M71 44 q3 -1.5 6 0"/>
    <path d="M71 56 q3 1.5 6 0"/>
  </g>
  
</svg>
