<svg xmlns="http://www.w3.org/2000/svg" viewBox="0 0 100 120" width="80" height="96">
  <ellipse cx="50" cy="116" rx="26" ry="5" fill="#000" opacity="0.12"/>
  <rect x="40" y="84" width="9" height="30" rx="4" fill="#2a2f3a"/>
  <rect x="51" y="84" width="9" height="30" rx="4" fill="#2a2f3a"/>
  <path d="M34 54 Q50 48 66 54 L64 88 Q50 92 36 88 Z" fill="#3b6db5" stroke="#5b3a1a" stroke-width="1"/>
  <rect x="28" y="56" width="8" height="26" rx="4" fill="#3b6db5" transform="rotate(8 32 56)"/>
  <rect x="60" y="56" width="22" height="7" rx="3.5" fill="#3b6db5" transform="rotate(28 60 59)"/>
  <circle cx="80" cy="74" r="5" fill="#F0C091" stroke="#5b3a1a" stroke-width="0.8"/>
  
  <circle cx="50" cy="36" r="15" fill="#F0C091" stroke="#5b3a1a" stroke-width="1"/>
  <path d="M35 30 Q50 14 65 30 Q60 22 50 21 Q40 22 35 30 Z" fill="#4a3525"/>
  <circle cx="44" cy="36" r="1.8" fill="#241a12"/>
  <circle cx="56" cy="36" r="1.8" fill="#241a12"/>
  <path d="M45 44 q5 3 10 0" stroke="#241a12" stroke-width="1.4" fill="none" stroke-linecap="round"/>
</svg>
