<svg xmlns="http://www.w3.org/2000/svg" viewBox="0 0 100 100" width="54" height="54">
  <path d="M22 50 Q9 44 6 52 Q9 58 22 52 Z" fill="#D38E3F" stroke="#5b3a1a" stroke-width="1.2"/>
  
  <g fill="#A66A2C">
    <ellipse cx="60" cy="34" rx="6" ry="4"/>
    <ellipse cx="60" cy="66" rx="6" ry="4"/>
    <ellipse cx="34" cy="34" rx="6" ry="4"/>
    <ellipse cx="34" cy="66" rx="6" ry="4"/>
  </g>
  <ellipse cx="47" cy="50" rx="26" ry="16" fill="#D38E3F" stroke="#5b3a1a" stroke-width="1.4"/>
  <ellipse cx="67" cy="37" rx="7" ry="5" transform="rotate(-25 67 37)" fill="#A66A2C" stroke="#5b3a1a" stroke-width="1"/>
  <ellipse cx="67" cy="63" rx="7" ry="5" transform="rotate(25 67 63)" fill="#A66A2C" stroke="#5b3a1a" stroke-width="1"/>
  <circle cx="70" cy="50" r="13" fill="#D38E3F" stroke="#5b3a1a" stroke-width="1.4"/>
  <ellipse cx="81" cy="50" rx="7" ry="6" fill="#D38E3F" stroke="#5b3a1a" stroke-width="1.2"/>
  <ellipse cx="87" cy="50" rx="3.4" ry="3" fill="#241a12"/>
  
  <g>
    <circle cx="74" cy="44" r="4.2" fill="#fff" stroke="#5b3a1a" stroke-width="0.8"/>
    <circle cx="74" cy="56" r="4.2" fill="#fff" stroke="#5b3a1a" stroke-width="0.8"/>
    <circle cx="75.5" cy="44" r="2.2" fill="#241a12"/>
    <circle cx="75.5" cy="56" r="2.2" fill="#241a12"/>
    <circle cx="74.8" cy="43.2" r="0.7" fill="#fff"/>
    <circle cx="74.8" cy="55.2" r="0.7" fill="#fff"/>
  </g>
  
</svg>
