<svg
  xmlns="http://www.w3.org/2000/svg"
  viewBox="0 0 512 512"
  width="512"
  height="512"
  preserveAspectRatio="xMidYMid meet"
>
  <path
    d="M0 0 C0.86825912 0.00222061 1.73651825 0.00444122 2.63108826 0.00672913 C3.61202957 0.00680466 4.59297089 0.00688019 5.6036377 0.00695801 C6.6702916 0.01211929 7.7369455 0.01728058 8.83592224 0.02259827 C10.46520912 0.02472069 10.46520912 0.02472069 12.12741089 0.02688599 C15.61230674 0.03250403 19.09713941 0.04505959 22.58201599 0.05775452 C24.93813486 0.06276719 27.29425473 0.0673305 29.65037537 0.07142639 C35.44011063 0.08247933 41.2298088 0.09923501 47.01951599 0.12025452 C47.01951599 0.78025452 47.01951599 1.44025452 47.01951599 2.12025452 C48.09588318 2.07900452 49.17225037 2.03775452 50.28123474 1.99525452 C55.9188779 2.00513862 61.31270092 3.0478185 66.83201599 4.12025452 C67.95043884 4.33593079 69.06886169 4.55160706 70.22117615 4.77381897 C100.28678727 10.84753207 100.28678727 10.84753207 112.01951599 17.12025452 C112.01951599 17.78025452 112.01951599 18.44025452 112.01951599 19.12025452 C113.17451599 19.28525452 114.32951599 19.45025452 115.51951599 19.62025452 C125.80682329 21.8863967 136.48599348 28.07567607 145.01951599 34.12025452 C145.01951599 34.78025452 145.01951599 35.44025452 145.01951599 36.12025452 C145.72076599 36.36775452 146.42201599 36.61525452 147.14451599 36.87025452 C152.7649559 39.31392404 157.501861 43.03285238 162.01951599 47.12025452 C162.01951599 47.78025452 162.01951599 48.44025452 162.01951599 49.12025452 C162.65889099 49.36775452 163.29826599 49.61525452 163.95701599 49.87025452 C166.01951599 51.12025452 166.01951599 51.12025452 166.76951599 53.24525452 C166.85201599 53.86400452 166.93451599 54.48275452 167.01951599 55.12025452 C167.61248474 55.20146545 168.20545349 55.28267639 168.81639099 55.36634827 C171.69509548 56.35143686 172.54413985 57.71232959 174.26951599 60.18275452 C174.79029724 60.91623108 175.31107849 61.64970764 175.84764099 62.40541077 C176.23435974 62.9713092 176.62107849 63.53720764 177.01951599 64.12025452 C180.9900531 63.52539065 183.90917872 62.28011587 187.39451599 60.30775452 C188.34842224 59.77021545 189.30232849 59.23267639 190.28514099 58.67884827 C191.18748474 58.16451233 192.08982849 57.65017639 193.01951599 57.12025452 C193.75685974 56.71935608 194.49420349 56.31845764 195.25389099 55.90541077 C198.74078315 54.14499334 198.74078315 54.14499334 201.01951599 51.12025452 C203.05076599 50.08509827 203.05076599 50.08509827 205.51951599 49.05775452 C208.49972831 47.94236595 208.49972831 47.94236595 211.01951599 46.12025452 C214.01951599 45.99525452 214.01951599 45.99525452 217.01951599 46.12025452 C218.01951599 47.12025452 218.01951599 47.12025452 218.18699646 50.66859436 C218.12830902 55.05843895 217.35784787 59.09007043 216.33982849 63.34681702 C216.16700348 64.09812897 215.99417847 64.84944092 215.81611633 65.6235199 C215.45196843 67.19922797 215.08367825 68.77398407 214.71141052 70.34779358 C214.14484104 72.74387984 213.59085914 75.14260613 213.03904724 77.54212952 C212.68170236 79.08136122 212.32365336 80.62042966 211.96482849 82.15931702 C211.717827 83.22359421 211.717827 83.22359421 211.46583557 84.30937195 C210.51219763 88.32888776 209.34787469 92.21089521 208.01951599 96.12025452 C207.46429105 98.65463059 206.94470408 101.1970204 206.45701599 103.74525452 C204.90867534 111.7837899 204.90867534 111.7837899 204.01951599 115.12025452 C203.35951599 115.12025452 202.69951599 115.12025452 202.01951599 115.12025452 C201.82333783 117.66151624 201.63734351 120.20285911 201.45701599 122.74525452 C201.40094177 123.45810608 201.34486755 124.17095764 201.28709412 124.90541077 C200.99455801 129.15693556 201.1240366 132.91481798 202.01951599 137.12025452 C202.67951599 137.12025452 203.33951599 137.12025452 204.01951599 137.12025452 C205.28123474 138.80775452 205.28123474 138.80775452 206.70701599 141.12025452 C210.37154169 146.80473829 214.61818275 151.71892127 219.39451599 156.49525452 C221.88983522 158.99057375 224.31113706 161.52949548 226.70701599 164.12025452 C227.47400818 164.94525452 228.24100037 165.77025452 229.03123474 166.62025452 C230.99862004 169.09398062 231.97212709 171.16494591 233.01951599 174.12025452 C233.55576599 174.96587952 234.09201599 175.81150452 234.64451599 176.68275452 C236.01951599 179.12025452 236.01951599 179.12025452 236.01951599 183.12025452 C236.67951599 183.12025452 237.33951599 183.12025452 238.01951599 183.12025452 C240.65005008 192.84383588 240.65005008 201.39667315 238.01951599 211.12025452 C237.35951599 211.12025452 236.69951599 211.12025452 236.01951599 211.12025452 C235.94603943 211.8769342 235.87256287 212.63361389 235.79685974 213.41322327 C234.80701358 216.86027548 233.58846473 217.57116146 230.58201599 219.43275452 C229.77893005 219.94451233 228.97584412 220.45627014 228.14842224 220.98353577 C226.01951599 222.12025452 226.01951599 222.12025452 224.01951599 222.12025452 C224.01951599 222.78025452 224.01951599 223.44025452 224.01951599 224.12025452 C219.06951599 224.12025452 214.11951599 224.12025452 209.01951599 224.12025452 C209.01951599 223.46025452 209.01951599 222.80025452 209.01951599 222.12025452 C208.35951599 222.03775452 207.69951599 221.95525452 207.01951599 221.87025452 C203.01968199 220.87029602 199.65051413 219.03320582 196.01951599 217.12025452 C194.68757541 216.4508096 193.35462866 215.78335057 192.01951599 215.12025452 C192.40623474 215.68873108 192.79295349 216.25720764 193.19139099 216.84291077 C202.01951599 229.9321357 202.01951599 229.9321357 202.01951599 233.12025452 C202.67951599 233.12025452 203.33951599 233.12025452 204.01951599 233.12025452 C213.43893996 255.31602483 216.75663058 277.38434906 211.01951599 301.12025452 C209.58201599 304.30775452 209.58201599 304.30775452 208.01951599 307.12025452 C207.24965986 309.48965629 206.53811934 311.86664619 205.86326599 314.26478577 C205.58482849 314.87709045 205.30639099 315.48939514 205.01951599 316.12025452 C204.02951599 316.45025452 203.03951599 316.78025452 202.01951599 317.12025452 C201.28917721 318.76001898 200.63003318 320.43221098 200.01951599 322.12025452 C196.48646926 328.31128996 192.18171992 333.25908624 187.01951599 338.12025452 C185.83422302 339.32101624 185.83422302 339.32101624 184.62498474 340.54603577 C176.68213083 348.39362307 167.73376089 355.54883955 157.01951599 359.12025452 C157.01951599 359.78025452 157.01951599 360.44025452 157.01951599 361.12025452 C154.04951599 362.44025452 151.07951599 363.76025452 148.01951599 365.12025452 C148.84451599 365.47087952 149.66951599 365.82150452 150.51951599 366.18275452 C155.98468331 368.94779166 161.34023943 373.03608574 164.08201599 378.62025452 C165.15785312 382.63671313 165.0784821 385.11131138 164.01951599 389.12025452 C162.58201599 391.55775452 162.58201599 391.55775452 161.01951599 393.12025452 C160.35951599 393.12025452 159.69951599 393.12025452 159.01951599 393.12025452 C159.01951599 393.78025452 159.01951599 394.44025452 159.01951599 395.12025452 C155.60217205 396.59536701 152.44205286 397.53264862 148.76951599 398.12025452 C147.20523865 398.37548889 147.20523865 398.37548889 145.60935974 398.63587952 C142.98490568 398.98999519 140.40897715 399.26911627 137.77342224 399.47962952 C128.96546722 400.22496287 122.97777234 401.23008267 116.01951599 407.12025452 C111.31951599 410.12025452 111.31951599 410.12025452 109.01951599 410.12025452 C108.68951599 411.11025452 108.35951599 412.10025452 108.01951599 413.12025452 C104.91122967 415.31433898 101.59717366 416.79653971 98.08592224 418.23744202 C96.55566783 418.8911991 95.04504296 419.59132679 93.54685974 420.31556702 C86.85152282 423.53318217 80.27723369 425.56231512 73.01951599 427.12025452 C73.01951599 427.78025452 73.01951599 428.44025452 73.01951599 429.12025452 C69.5333458 430.64545398 66.04922735 431.67668723 62.35154724 432.56166077 C59.77514151 433.17878978 57.21110591 433.83851989 54.64451599 434.49525452 C52.43653034 435.0383367 50.22816276 435.57986732 48.01951599 436.12025452 C46.7575238 436.44252014 45.49553162 436.76478577 44.19529724 437.09681702 C1.44179552 447.64113064 -46.94452537 446.29524214 -88.60548401 431.99525452 C-89.66340149 431.63306824 -89.66340149 431.63306824 -90.74269104 431.26356506 C-94.19938311 430.00779686 -96.5182014 428.82949172 -98.98048401 426.12025452 C-100.47731289 425.34300209 -102.00185188 424.61797699 -103.54298401 423.93275452 C-109.30081253 421.1469816 -114.37413289 417.56840772 -118.98048401 413.12025452 C-119.47548401 411.63525452 -119.47548401 411.63525452 -119.98048401 410.12025452 C-121.30809961 409.76483125 -122.64250498 409.4344217 -123.98048401 409.12025452 C-125.71974182 407.75331116 -125.71974182 407.75331116 -127.43360901 406.03041077 C-128.36173401 405.10131897 -128.36173401 405.10131897 -129.30860901 404.15345764 C-129.94282776 403.50312561 -130.57704651 402.85279358 -131.23048401 402.18275452 C-131.88017151 401.53628967 -132.52985901 400.88982483 -133.19923401 400.22377014 C-137.98048401 395.38727461 -137.98048401 395.38727461 -137.98048401 393.12025452 C-138.53606995 392.92173889 -139.09165588 392.72322327 -139.66407776 392.51869202 C-142.91026328 390.55893752 -144.83408346 387.75227356 -147.04298401 384.74525452 C-147.69363831 383.87900452 -147.69363831 383.87900452 -148.35743713 382.99525452 C-149.57221438 381.37555153 -150.77666727 379.74812023 -151.98048401 378.12025452 C-152.57731995 377.36486389 -153.17415588 376.60947327 -153.78907776 375.83119202 C-154.98048401 374.12025452 -154.98048401 374.12025452 -154.98048401 372.12025452 C-155.56700745 371.87791077 -156.15353088 371.63556702 -156.75782776 371.38587952 C-162.55820342 368.0830294 -166.29684799 361.02425376 -168.98048401 355.12025452 C-170.44509811 352.44574182 -171.68784478 350.3940138 -173.91798401 348.30775452 C-176.17706267 345.911762 -177.38139867 343.43339822 -178.77345276 340.47181702 C-180.70127355 336.71599786 -183.06425115 333.24933073 -185.39454651 329.73353577 C-186.98048401 327.12025452 -186.98048401 327.12025452 -188.06642151 324.35072327 C-188.76246791 321.9550781 -188.76246791 321.9550781 -190.98048401 321.12025452 C-192.16407776 319.08119202 -192.16407776 319.08119202 -193.41798401 316.49525452 C-193.82919495 315.65736389 -194.24040588 314.81947327 -194.66407776 313.95619202 C-196.17297034 310.70558071 -197.5765606 307.41750975 -198.98048401 304.12025452 C-199.49868713 302.95365295 -200.01689026 301.78705139 -200.55079651 300.58509827 C-201.06384338 299.42107483 -201.57689026 298.25705139 -202.10548401 297.05775452 C-202.62368713 295.89115295 -203.14189026 294.72455139 -203.67579651 293.52259827 C-204.89581953 290.34104122 -205.55985582 287.49040968 -205.98048401 284.12025452 C-206.64048401 284.12025452 -207.30048401 284.12025452 -207.98048401 284.12025452 C-213.41183187 271.70574512 -214.51907446 258.20638186 -214.41798401 244.80775452 C-214.41627197 244.1191333 -214.41455994 243.43051208 -214.41279602 242.72102356 C-214.32649804 222.11576542 -211.96609258 201.32723631 -207.98048401 181.12025452 C-207.32048401 181.12025452 -206.66048401 181.12025452 -205.98048401 181.12025452 C-205.97790588 180.46025452 -205.97532776 179.80025452 -205.97267151 179.12025452 C-205.18802147 159.03321353 -198.19895798 138.32552905 -189.98048401 120.12025452 C-189.19064739 118.32892898 -188.40161441 116.53724893 -187.61329651 114.74525452 C-186.7778324 112.87004354 -185.94188951 110.9950458 -185.10548401 109.12025452 C-184.6968512 108.18697327 -184.28821838 107.25369202 -183.86720276 106.29212952 C-181.1598011 100.25318998 -178.26308309 94.22346196 -173.98048401 89.12025452 C-173.32048401 89.12025452 -172.66048401 89.12025452 -171.98048401 89.12025452 C-171.64017151 87.84794983 -171.64017151 87.84794983 -171.29298401 86.54994202 C-169.74649061 82.50880749 -167.64522127 79.61043701 -164.98048401 76.24525452 C-164.3037262 75.35580139 -164.3037262 75.35580139 -163.61329651 74.44837952 C-162.45595803 72.96232952 -161.22348669 71.53542987 -159.98048401 70.12025452 C-159.32048401 70.12025452 -158.66048401 70.12025452 -157.98048401 70.12025452 C-157.48548401 68.63525452 -157.48548401 68.63525452 -156.98048401 67.12025452 C-156.32048401 67.12025452 -155.66048401 67.12025452 -154.98048401 67.12025452 C-154.48548401 65.63525452 -154.48548401 65.63525452 -153.98048401 64.12025452 C-152.30860901 62.43666077 -152.30860901 62.43666077 -150.23048401 60.68275452 C-149.50989807 60.07044983 -148.78931213 59.45814514 -148.04689026 58.82728577 C-145.71216874 56.89860277 -143.345162 55.01199691 -140.98048401 53.12025452 C-140.55380432 52.66779358 -140.12712463 52.21533264 -139.68751526 51.74916077 C-133.96965715 46.29298953 -121.15102678 36.12025452 -112.98048401 36.12025452 C-112.98048401 35.46025452 -112.98048401 34.80025452 -112.98048401 34.12025452 C-107.50585659 30.78787261 -101.95898897 28.40371127 -95.98048401 26.12025452 C-94.90798401 25.69357483 -93.83548401 25.26689514 -92.73048401 24.82728577 C-86.8601914 22.51042259 -81.1524758 20.45146843 -74.98048401 19.12025452 C-74.98048401 18.46025452 -74.98048401 17.80025452 -74.98048401 17.12025452 C-70.0725136 15.65447143 -65.15986537 14.20636688 -60.24073792 12.77845764 C-58.31216599 12.21684283 -56.38626799 11.6460593 -54.46095276 11.07337952 C-38.47391738 6.53224257 -21.88702395 3.90643921 -5.45167542 1.57191467 C-2.95043047 1.11476163 -2.4141251 0.1465851 0 0 Z M-114.98048401 77.12025452 C-117.1054647 78.74305759 -117.1054647 78.74305759 -118.98048401 81.12025452 C-119.3149666 84.28808652 -119.3149666 84.28808652 -118.98048401 87.12025452 C-118.65048401 86.13025452 -118.32048401 85.14025452 -117.98048401 84.12025452 C-115.34048401 84.45025452 -112.70048401 84.78025452 -109.98048401 85.12025452 C-110.33097976 81.87816884 -110.54269581 80.50497747 -113.04298401 78.30775452 C-113.68235901 77.91587952 -114.32173401 77.52400452 -114.98048401 77.12025452 Z M-40.98048401 77.12025452 C-44.28338593 80.57227285 -44.28338593 80.57227285 -44.98048401 85.12025452 C-41.68048401 85.12025452 -38.38048401 85.12025452 -34.98048401 85.12025452 C-34.55369441 81.14426143 -34.55369441 81.14426143 -36.85548401 78.87025452 C-38.77898751 76.9083521 -38.77898751 76.9083521 -40.98048401 77.12025452 Z M171.01951599 118.12025452 C170.68951599 119.44025452 170.35951599 120.76025452 170.01951599 122.12025452 C169.35951599 122.12025452 168.69951599 122.12025452 168.01951599 122.12025452 C166.79211168 123.70665989 166.79211168 123.70665989 165.64451599 125.74525452 C165.20236755 126.4813092 164.76021912 127.21736389 164.30467224 127.97572327 C163.88057068 128.68341858 163.45646912 129.39111389 163.01951599 130.12025452 C161.69605093 132.12679832 160.3622242 134.12653627 159.01951599 136.12025452 C158.53225037 136.87951233 158.04498474 137.63877014 157.54295349 138.42103577 C157.01959412 139.22927795 156.49623474 140.03752014 155.95701599 140.87025452 C155.47103943 141.62822327 154.98506287 142.38619202 154.48435974 143.16712952 C153.01951599 145.12025452 153.01951599 145.12025452 150.01951599 147.12025452 C150.01951599 147.78025452 150.01951599 148.44025452 150.01951599 149.12025452 C149.02951599 149.45025452 148.03951599 149.78025452 147.01951599 150.12025452 C145.34067921 151.81431142 145.34067921 151.81431142 143.70701599 153.87025452 C138.16757999 160.38518869 131.49334686 165.55018146 124.08201599 169.80775452 C123.40139099 170.24087952 122.72076599 170.67400452 122.01951599 171.12025452 C122.01951599 171.78025452 122.01951599 172.44025452 122.01951599 173.12025452 C121.39045349 173.29041077 120.76139099 173.46056702 120.11326599 173.63587952 C114.35596734 175.26595805 109.29067193 177.28944855 104.01951599 180.12025452 C104.01951599 180.78025452 104.01951599 181.44025452 104.01951599 182.12025452 C108.06584539 181.44083354 111.69442586 180.21988039 115.51951599 178.74525452 C116.62295349 178.32502014 117.72639099 177.90478577 118.86326599 177.47181702 C122.71020183 175.82449053 125.9877719 174.15199861 128.95701599 171.18275452 C131.42408167 168.71568883 134.10557824 167.04455303 137.01951599 165.12025452 C142.47673761 161.23850905 146.41675535 157.8349783 150.01951599 152.12025452 C150.98889099 151.31587952 151.95826599 150.51150452 152.95701599 149.68275452 C158.19024355 145.30393146 161.04342658 140.20182853 164.01951599 134.12025452 C164.74139099 133.04775452 165.46326599 131.97525452 166.20701599 130.87025452 C168.20295378 128.39086479 168.20295378 128.39086479 168.01951599 126.12025452 C169.00951599 125.79025452 169.99951599 125.46025452 171.01951599 125.12025452 C172.24921477 121.60834642 172.24921477 121.60834642 173.01951599 118.12025452 C172.35951599 118.12025452 171.69951599 118.12025452 171.01951599 118.12025452 Z M-87.98048401 177.12025452 C-88.22798401 178.06900452 -88.47548401 179.01775452 -88.73048401 179.99525452 C-90.98048401 183.12025452 -90.98048401 183.12025452 -93.09571838 183.84095764 C-103.26985321 185.46503213 -113.45151304 185.57035533 -123.73048401 185.74525452 C-125.6028963 185.78351996 -127.4752926 185.82257636 -129.34767151 185.86244202 C-133.8918095 185.95749456 -138.4360294 186.04185789 -142.98048401 186.12025452 C-141.49548401 187.11025452 -141.49548401 187.11025452 -139.98048401 188.12025452 C-138.43360901 189.26494202 -138.43360901 189.26494202 -136.85548401 190.43275452 C-112.18913435 205.66388846 -75.81140063 203.1012434 -48.98048401 197.12025452 C-42.03578588 195.3363343 -35.86044659 193.59137646 -30.98048401 188.12025452 C-32.87764436 185.55350816 -34.07212714 185.09734373 -37.23048401 184.30775452 C-40.93319205 183.91602723 -40.93319205 183.91602723 -44.16798401 185.05775452 C-54.5829951 187.96029859 -61.99923696 185.87614927 -71.14454651 180.84681702 C-73.98048401 179.12025452 -73.98048401 179.12025452 -75.98048401 177.12025452 C-78.87931484 176.876859 -78.87931484 176.876859 -82.10548401 176.99525452 C-83.7490387 177.02232483 -83.7490387 177.02232483 -85.42579651 177.04994202 C-86.26884338 177.07314514 -87.11189026 177.09634827 -87.98048401 177.12025452 Z M-149.98048401 193.12025452 C-152.94886182 197.14192768 -154.50437741 200.12113528 -154.98048401 205.12025452 C-155.64048401 205.12025452 -156.30048401 205.12025452 -156.98048401 205.12025452 C-158.64300203 210.69457966 -159.16657766 214.42700501 -157.98048401 220.12025452 C-156.99048401 220.45025452 -156.00048401 220.78025452 -154.98048401 221.12025452 C-154.87735901 220.48087952 -154.77423401 219.84150452 -154.66798401 219.18275452 C-154.44110901 218.50212952 -154.21423401 217.82150452 -153.98048401 217.12025452 C-150.40044628 215.92690861 -147.73732505 215.78482228 -143.98048401 216.12025452 C-140.46242464 219.05197066 -140.4014786 222.74191079 -139.98048401 227.12025452 C-139.32048401 227.12025452 -138.66048401 227.12025452 -137.98048401 227.12025452 C-137.85673401 228.35775452 -137.73298401 229.59525452 -137.60548401 230.87025452 C-137.22302096 233.99647422 -136.67498878 236.40904689 -134.98048401 239.12025452 C-132.15977734 234.88919451 -130.90766055 230.26992501 -129.29689026 225.46791077 C-127.61970499 221.20278383 -126.44376966 218.78538436 -122.23048401 216.87025452 C-117.90258052 215.87150756 -114.06698417 215.59862948 -109.73048401 216.68275452 C-106.95525594 218.96240614 -106.21736424 221.7806779 -104.98048401 225.12025452 C-104.32048401 225.12025452 -103.66048401 225.12025452 -102.98048401 225.12025452 C-101.99048401 228.75025452 -101.00048401 232.38025452 -99.98048401 236.12025452 C-98.66048401 236.45025452 -97.34048401 236.78025452 -95.98048401 237.12025452 C-95.54478088 236.49377014 -95.10907776 235.86728577 -94.66017151 235.22181702 C-89.8669106 228.64405205 -89.8669106 228.64405205 -86.23048401 226.49525452 C-82.21540071 226.03197567 -78.55135625 226.54996158 -74.55079651 227.01869202 C-71.80283546 227.30617333 -71.80283546 227.30617333 -68.79298401 225.80775452 C-68.19485901 225.25087952 -67.59673401 224.69400452 -66.98048401 224.12025452 C-66.98048401 223.46025452 -66.98048401 222.80025452 -66.98048401 222.12025452 C-63.02048401 222.12025452 -59.06048401 222.12025452 -54.98048401 222.12025452 C-54.48548401 223.60525452 -54.48548401 223.60525452 -53.98048401 225.12025452 C-53.21735901 225.86275452 -52.45423401 226.60525452 -51.66798401 227.37025452 C-49.44452925 229.64541753 -48.29677788 231.15461201 -46.85548401 233.87025452 C-45.31036352 237.37902228 -45.31036352 237.37902228 -41.98048401 238.12025452 C-39.86272715 233.77639044 -38.09438588 230.01723177 -37.48048401 225.18275452 C-37.31548401 224.17212952 -37.15048401 223.16150452 -36.98048401 222.12025452 C-35.10548401 220.80775452 -35.10548401 220.80775452 -32.98048401 220.12025452 C-31.99048401 219.46025452 -31.00048401 218.80025452 -29.98048401 218.12025452 C-27.50001526 218.14369202 -27.50001526 218.14369202 -24.79298401 218.49525452 C-23.44140198 218.66154358 -23.44140198 218.66154358 -22.06251526 218.83119202 C-21.37544495 218.92658264 -20.68837463 219.02197327 -19.98048401 219.12025452 C-20.40754582 216.59725816 -20.84677787 214.07737627 -21.29298401 211.55775452 C-21.41093323 210.85328186 -21.52888245 210.1488092 -21.65040588 209.42298889 C-22.51432788 204.61603829 -23.90522807 200.54397936 -25.98048401 196.12025452 C-27.16384338 196.60236389 -28.34720276 197.08447327 -29.56642151 197.58119202 C-37.64123057 200.82460496 -45.31829502 203.86283999 -53.98048401 205.12025452 C-53.98048401 205.78025452 -53.98048401 206.44025452 -53.98048401 207.12025452 C-74.81055205 209.03176363 -95.18049663 209.62653518 -115.98048401 207.12025452 C-115.98048401 206.46025452 -115.98048401 205.80025452 -115.98048401 205.12025452 C-116.74489807 204.97330139 -117.50931213 204.82634827 -118.29689026 204.67494202 C-129.52109812 202.32474687 -139.76192917 198.36213914 -149.98048401 193.12025452 Z M187.01951599 209.12025452 C188.33951599 210.44025452 189.65951599 211.76025452 191.01951599 213.12025452 C190.35951599 211.80025452 189.69951599 210.48025452 189.01951599 209.12025452 C188.35951599 209.12025452 187.69951599 209.12025452 187.01951599 209.12025452 Z M-164.48829651 257.44056702 C-167.04705405 260.2959921 -168.78901212 262.35436698 -169.73048401 266.12025452 C-168.42489435 271.34261313 -165.36323903 274.47101428 -160.98829651 277.49916077 C-126.89775424 296.31383721 -73.00769283 294.51801562 -36.46095276 284.69447327 C-21.62899612 280.69589901 -21.62899612 280.69589901 -9.79298401 271.62025452 C-7.81031587 268.38748425 -7.81031587 268.38748425 -7.85548401 265.49525452 C-9.36977639 262.29841504 -11.2745296 260.37521652 -13.98048401 258.12025452 C-14.97048401 258.12025452 -15.96048401 258.12025452 -16.98048401 258.12025452 C-17.31048401 260.43025452 -17.64048401 262.74025452 -17.98048401 265.12025452 C-18.97048401 265.45025452 -19.96048401 265.78025452 -20.98048401 266.12025452 C-21.78485901 266.92462952 -22.58923401 267.72900452 -23.41798401 268.55775452 C-25.63022062 270.76999113 -27.13808418 271.96223977 -29.98048401 273.12025452 C-29.98048401 273.78025452 -29.98048401 274.44025452 -29.98048401 275.12025452 C-32.31223051 275.73109768 -34.64567533 276.33380639 -36.98048401 276.93275452 C-37.60954651 277.09839905 -38.23860901 277.26404358 -38.88673401 277.43470764 C-41.24326904 278.03517089 -43.60977351 278.57835958 -45.98048401 279.12025452 C-47.04122131 279.3826593 -48.10195862 279.64506409 -49.19483948 279.91542053 C-60.97961635 282.52281597 -72.60296563 282.54419478 -84.63526917 282.45643616 C-88.10604505 282.43275069 -91.57605335 282.43590856 -95.04689026 282.44252014 C-109.26551812 282.42514177 -122.75244733 281.80843823 -136.54298401 278.05775452 C-140.67152824 276.97001857 -144.78040233 275.9022275 -148.98048401 275.12025452 C-148.98048401 274.46025452 -148.98048401 273.80025452 -148.98048401 273.12025452 C-151.18620005 271.53177588 -153.49265715 270.16207969 -155.81642151 268.75306702 C-159.38023873 266.06412189 -159.8812431 263.71569994 -160.60548401 259.37025452 C-160.72923401 258.29775452 -160.85298401 257.22525452 -160.98048401 256.12025452 C-163.06373504 255.900661 -163.06373504 255.900661 -164.48829651 257.44056702 Z "
    fill="#0E0E10"
    transform="translate(240.98048400878906,32.87974548339844)"
  />
  <path
    d="M0 0 C2.37288617 0.94337969 4.74427574 1.67551291 7.20239258 2.36279297 C12.22774939 3.80429785 16.96266441 5.77488841 21.76098633 7.83935547 C24.37215866 8.98380335 24.37215866 8.98380335 27.32739258 9.92529297 C27.65739258 10.58529297 27.98739258 11.24529297 28.32739258 11.92529297 C29.96731499 12.77612896 29.96731499 12.77612896 32.01489258 13.55029297 C46.58366456 19.86650108 63.65171936 30.0621038 72.32739258 43.92529297 C72.99536133 46.64794922 72.99536133 46.64794922 73.32739258 48.92529297 C72.49594727 49.33521484 71.66450195 49.74513672 70.80786133 50.16748047 C69.1778418 50.97572266 69.1778418 50.97572266 67.51489258 51.80029297 C66.43594727 52.33396484 65.35700195 52.86763672 64.24536133 53.41748047 C61.24900993 54.89750436 61.24900993 54.89750436 58.32739258 56.92529297 C53.54529471 56.65203023 49.47479879 54.13792904 45.32739258 51.92529297 C45.32739258 51.26529297 45.32739258 50.60529297 45.32739258 49.92529297 C43.45156545 50.01331722 41.57667986 50.12150507 39.70239258 50.23779297 C38.13618164 50.32480469 38.13618164 50.32480469 36.53833008 50.41357422 C30.69185586 51.34531159 26.48647864 54.32462373 21.95239258 57.98779297 C21.0784082 58.68001953 20.20442383 59.37224609 19.30395508 60.08544922 C17.29298402 61.7659601 16.21453948 63.12627599 14.91430664 65.44189453 C12.67367583 69.16395596 10.69984968 72.32019962 6.27545166 73.44863892 C0.13783683 74.19096689 -6.01421631 73.83421323 -12.17260742 73.55029297 C-14.06311494 73.50008244 -15.95375033 73.45446375 -17.84448242 73.41357422 C-22.45703414 73.30386219 -27.0634083 73.13162764 -31.67260742 72.92529297 C-32.00260742 72.26529297 -32.33260742 71.60529297 -32.67260742 70.92529297 C-34.31594246 69.88739715 -35.98504609 68.88961373 -37.67260742 67.92529297 C-40.99440224 65.71076309 -41.37011766 64.27572238 -42.82104492 60.71435547 C-44.24203639 57.72896973 -46.15900183 56.07233107 -48.67260742 53.92529297 C-49.45893555 53.24853516 -50.24526367 52.57177734 -51.05541992 51.87451172 C-58.54347422 45.86913484 -63.91059016 44.42036928 -73.34057617 45.12451172 C-79.44053107 45.98275046 -83.79242451 48.06092372 -87.67260742 52.92529297 C-90.91459268 59.83213113 -90.97078372 69.8179366 -88.67260742 77.11279297 C-85.93775226 83.2466824 -81.22772031 88.92772639 -75.96948242 93.03857422 C-73.67260742 94.92529297 -73.67260742 94.92529297 -72.79760742 97.86279297 C-72.67260742 100.92529297 -72.67260742 100.92529297 -73.14916992 103.24560547 C-74.32657562 109.27321969 -74.39574043 115.54320777 -72.61010742 121.42529297 C-67.60257559 127.88662437 -60.84332898 128.75897303 -53.17260742 130.21435547 C-49.67260742 130.92529297 -49.67260742 130.92529297 -46.57104492 131.97998047 C-40.99289734 133.62729176 -35.06425207 133.31896655 -29.29760742 133.42529297 C-12.21021005 133.74241716 -1.31614563 136.84368979 11.32739258 148.92529297 C11.32739258 149.58529297 11.32739258 150.24529297 11.32739258 150.92529297 C12.97739258 150.92529297 14.62739258 150.92529297 16.32739258 150.92529297 C15.66739258 151.25529297 15.00739258 151.58529297 14.32739258 151.92529297 C14.32739258 152.58529297 14.32739258 153.24529297 14.32739258 153.92529297 C15.09051758 153.57466797 15.85364258 153.22404297 16.63989258 152.86279297 C19.32739258 151.92529297 19.32739258 151.92529297 22.32739258 152.92529297 C19.68000341 154.38592147 18.43290924 154.92529297 15.32739258 154.92529297 C15.65739258 155.91529297 15.98739258 156.90529297 16.32739258 157.92529297 C17.31370182 167.07106956 17.00410583 173.95437665 11.37426758 181.56591797 C2.94070636 191.28704579 -8.63009784 198.46220419 -20.61010742 203.05029297 C-22.84869613 203.73685856 -22.84869613 203.73685856 -23.67260742 205.92529297 C-25.82495117 206.85498047 -25.82495117 206.85498047 -28.61010742 207.80029297 C-34.03263163 209.6921983 -39.35879424 211.74855022 -44.67260742 213.92529297 C-45.84823242 214.39966797 -47.02385742 214.87404297 -48.23510742 215.36279297 C-59.62961153 220.54211302 -69.31809413 227.49908277 -77.23510742 237.29638672 C-78.67260742 238.92529297 -78.67260742 238.92529297 -81.67260742 240.92529297 C-86.03175407 247.31870805 -88.20991534 254.64823974 -90.67260742 261.92529297 C-91.33260742 261.92529297 -91.99260742 261.92529297 -92.67260742 261.92529297 C-95.38556229 279.97128743 -96.41688306 298.94183772 -92.67260742 316.92529297 C-92.34260742 317.25529297 -92.01260742 317.58529297 -91.67260742 317.92529297 C-91.10695744 320.16444626 -90.59497356 322.41726901 -90.11010742 324.67529297 C-89.84069336 325.90763672 -89.5712793 327.13998047 -89.29370117 328.40966797 C-88.77077889 331.36960539 -88.45678577 333.93699314 -88.67260742 336.92529297 C-90.45125028 338.70393583 -92.88154439 338.22387248 -95.29760742 338.30029297 C-114.91348374 338.128035 -128.98255454 326.64632314 -142.14672852 313.44726562 C-150.74577397 304.68176786 -158.8723457 294.84832736 -164.85620117 284.08154297 C-166.62095378 281.01504812 -167.85981499 279.89424767 -170.67260742 277.92529297 C-172.72672573 274.8441155 -172.74460981 272.56141378 -172.67260742 268.92529297 C-171.41601318 268.79682983 -171.41601318 268.79682983 -170.1340332 268.66577148 C-167.02888314 268.34645977 -163.92412105 268.02366252 -160.81958008 267.69848633 C-159.4753244 267.55841235 -158.13092269 267.41973253 -156.78637695 267.2824707 C-154.85484689 267.08504125 -152.92387273 266.88219682 -150.99291992 266.67919922 C-149.83034668 266.55875244 -148.66777344 266.43830566 -147.4699707 266.31420898 C-144.72449703 266.08448195 -144.72449703 266.08448195 -142.67260742 264.92529297 C-141.05119882 264.78294933 -139.42668454 264.67515547 -137.80151367 264.58544922 C-131.41720578 264.0529894 -125.6771807 262.34588164 -119.61010742 260.36279297 C-117.57825496 259.71346426 -115.54573575 259.06621696 -113.51245117 258.42138672 C-112.62936279 258.13448975 -111.74627441 257.84759277 -110.83642578 257.55200195 C-108.67260742 256.92529297 -108.67260742 256.92529297 -106.67260742 256.92529297 C-106.67260742 256.26529297 -106.67260742 255.60529297 -106.67260742 254.92529297 C-105.09838867 253.81201172 -105.09838867 253.81201172 -102.98510742 252.61279297 C-98.80008215 250.10474591 -94.90734802 247.39477416 -92.67260742 242.92529297 C-91.84977343 238.73149392 -91.71557871 235.1041513 -92.67260742 230.92529297 C-97.08770621 225.21519951 -102.00120537 221.59385379 -108.67260742 218.92529297 C-108.67260742 212.32529297 -108.67260742 205.72529297 -108.67260742 198.92529297 C-107.68260742 198.92529297 -106.69260742 198.92529297 -105.67260742 198.92529297 C-105.34260742 197.93529297 -105.01260742 196.94529297 -104.67260742 195.92529297 C-104.01260742 195.92529297 -103.35260742 195.92529297 -102.67260742 195.92529297 C-103.61943768 186.10815817 -105.01881146 177.16724745 -108.67260742 167.92529297 C-108.98198242 167.07966797 -109.29135742 166.23404297 -109.61010742 165.36279297 C-111.71040533 160.04203827 -113.99141086 157.22340873 -118.67260742 153.92529297 C-118.33613189 151.00054414 -117.81164702 150.0478538 -115.56323242 148.06591797 C-114.69182617 147.44201172 -113.82041992 146.81810547 -112.92260742 146.17529297 C-104.91627613 139.95068448 -101.3501779 133.28394513 -99.89526367 123.17382812 C-99.41563099 118.33016918 -99.38258447 113.47667921 -99.36010742 108.61279297 C-99.3517688 107.07365234 -99.3517688 107.07365234 -99.34326172 105.50341797 C-99.4419094 95.1293913 -101.56140857 86.50976074 -107.67260742 77.92529297 C-113.27135989 72.44429629 -118.97652307 70.95742693 -126.67260742 70.92529297 C-126.67260742 69.60529297 -126.67260742 68.28529297 -126.67260742 66.92529297 C-126.05385742 66.84279297 -125.43510742 66.76029297 -124.79760742 66.67529297 C-122.52474764 66.11947792 -122.52474764 66.11947792 -121.48510742 64.05029297 C-119.54635528 58.97971044 -119.0569308 54.73004204 -120.23510742 49.36279297 C-122.3556778 45.7670432 -125.40568298 43.46720477 -128.67260742 40.92529297 C-132.45257718 42.6668077 -134.79803392 44.90330544 -137.67260742 47.92529297 C-138.27073242 48.37904297 -138.86885742 48.83279297 -139.48510742 49.30029297 C-141.52312862 52.08916408 -141.01651337 54.60086884 -140.67260742 57.92529297 C-139.20851963 61.31581207 -138.19115932 62.62380931 -134.98510742 64.48779297 C-134.22198242 64.96216797 -133.45885742 65.43654297 -132.67260742 65.92529297 C-132.67260742 67.24529297 -132.67260742 68.56529297 -132.67260742 69.92529297 C-135.42339626 70.84222258 -137.03209655 71.0341538 -139.86010742 70.98779297 C-141.11823242 70.96716797 -142.37635742 70.94654297 -143.67260742 70.92529297 C-143.67260742 71.58529297 -143.67260742 72.24529297 -143.67260742 72.92529297 C-144.61620117 73.163125 -144.61620117 73.163125 -145.57885742 73.40576172 C-156.05859471 76.26243709 -163.28108666 80.98330959 -169.67260742 89.92529297 C-171.11178174 93.53945814 -171.11178174 93.53945814 -171.67260742 96.92529297 C-172.02323242 97.75029297 -172.37385742 98.57529297 -172.73510742 99.42529297 C-176.97822046 110.74026106 -176.04261027 126.85310957 -171.67260742 137.92529297 C-171.32034723 139.25375134 -170.9812096 140.58601944 -170.67260742 141.92529297 C-172.98260742 141.92529297 -175.29260742 141.92529297 -177.67260742 141.92529297 C-178.06448242 140.81154297 -178.45635742 139.69779297 -178.86010742 138.55029297 C-179.96357279 136.04471793 -180.44391994 135.08468121 -182.73510742 133.48779297 C-190.31847062 132.03565959 -198.06806135 133.01921939 -205.67260742 133.92529297 C-204.31276689 130.86178264 -202.79649371 128.83701895 -200.37182617 126.53466797 C-199.40019531 125.59300781 -199.40019531 125.59300781 -198.40893555 124.63232422 C-197.05698022 123.34094268 -195.70285549 122.05182799 -194.34643555 120.76513672 C-190.40002158 116.93192355 -187.35727741 113.22926718 -184.69140625 108.40283203 C-184.35520264 107.91524414 -184.01899902 107.42765625 -183.67260742 106.92529297 C-183.01260742 106.92529297 -182.35260742 106.92529297 -181.67260742 106.92529297 C-180.16368859 98.24900967 -180.16085337 90.40246289 -182.67260742 81.92529297 C-183.33260742 81.92529297 -183.99260742 81.92529297 -184.67260742 81.92529297 C-184.81698242 81.18279297 -184.96135742 80.44029297 -185.11010742 79.67529297 C-187.48992361 75.48681649 -191.28646682 74.54076451 -195.67260742 72.92529297 C-195.67260742 72.26529297 -195.67260742 71.60529297 -195.67260742 70.92529297 C-197.65260742 70.92529297 -199.63260742 70.92529297 -201.67260742 70.92529297 C-201.67260742 69.27529297 -201.67260742 67.62529297 -201.67260742 65.92529297 C-200.70323242 65.67779297 -199.73385742 65.43029297 -198.73510742 65.17529297 C-195.64918587 64.2944524 -195.64918587 64.2944524 -194.79760742 62.30029297 C-194.75635742 61.51654297 -194.71510742 60.73279297 -194.67260742 59.92529297 C-194.56948242 58.66716797 -194.46635742 57.40904297 -194.36010742 56.11279297 C-194.43068015 51.37559831 -195.93582566 48.77158085 -198.67260742 44.92529297 C-201.26121135 42.53430226 -201.26121135 42.53430226 -203.67260742 40.92529297 C-208.38723512 42.89885805 -212.50548828 45.13725622 -214.67260742 49.92529297 C-215.23440739 53.97979276 -215.39800636 57.8872389 -214.67260742 61.92529297 C-213.18760742 62.91529297 -213.18760742 62.91529297 -211.67260742 63.92529297 C-211.67260742 64.58529297 -211.67260742 65.24529297 -211.67260742 65.92529297 C-209.69260742 66.42029297 -209.69260742 66.42029297 -207.67260742 66.92529297 C-207.67260742 67.91529297 -207.67260742 68.90529297 -207.67260742 69.92529297 C-209.33936523 70.3796875 -209.33936523 70.3796875 -211.03979492 70.84326172 C-226.39542105 74.64577299 -226.39542105 74.64577299 -238.67260742 83.92529297 C-239.63800367 88.4827155 -239.98004817 93.68462596 -237.56713867 97.81982422 C-235.01347766 100.19548205 -232.6147953 100.93580426 -229.23510742 101.55029297 C-225.26696097 100.85412692 -223.37620061 99.65312402 -220.34838867 97.11669922 C-216.28472486 94.22761422 -211.4439009 94.6223537 -206.67260742 94.92529297 C-204.67260742 95.98779297 -204.67260742 95.98779297 -203.67260742 97.92529297 C-203.04760742 101.17529297 -203.04760742 101.17529297 -203.67260742 104.92529297 C-207.83443695 110.27510013 -213.57295883 114.36512621 -218.98510742 118.36279297 C-219.69989258 118.90355469 -220.41467773 119.44431641 -221.15112305 120.00146484 C-226.41431096 123.92529297 -226.41431096 123.92529297 -228.67260742 123.92529297 C-229.01291992 124.72966797 -229.01291992 124.72966797 -229.36010742 125.55029297 C-231.12830831 128.74989458 -233.20930945 131.2156652 -235.67260742 133.92529297 C-236.33260742 133.92529297 -236.99260742 133.92529297 -237.67260742 133.92529297 C-239.90987289 139.4238031 -239.73677901 144.3099364 -239.24291992 150.09130859 C-239.12425485 152.93117952 -239.05313338 155.19595039 -240.95141602 157.4309082 C-242.46928678 158.66761478 -244.06995477 159.80062444 -245.67260742 160.92529297 C-253.1909916 171.31835345 -254.32418534 184.48662476 -254.67260742 196.92529297 C-254.03323242 197.23466797 -253.39385742 197.54404297 -252.73510742 197.86279297 C-250.67260742 198.92529297 -250.67260742 198.92529297 -249.67260742 199.92529297 C-249.5859131 201.41401156 -249.56557248 202.90673796 -249.57495117 204.39794922 C-249.57817383 205.29707031 -249.58139648 206.19619141 -249.5847168 207.12255859 C-249.59728516 208.54084961 -249.59728516 208.54084961 -249.61010742 209.98779297 C-249.61461914 210.9371875 -249.61913086 211.88658203 -249.6237793 212.86474609 C-249.63560632 215.21832362 -249.65208717 217.57177774 -249.67260742 219.92529297 C-250.89979492 220.34681641 -252.12698242 220.76833984 -253.39135742 221.20263672 C-258.78396994 223.23675489 -262.45792155 226.0909316 -265.67260742 230.92529297 C-267.17018891 235.66110039 -266.37162861 239.30453407 -264.43432617 243.79638672 C-258.13126308 254.88315879 -248.8548998 258.36657124 -237.14013672 261.73364258 C-222.62665379 265.51566996 -207.52822524 267.0486613 -192.67260742 268.92529297 C-192.34260742 273.21529297 -192.01260742 277.50529297 -191.67260742 281.92529297 C-191.01260742 281.92529297 -190.35260742 281.92529297 -189.67260742 281.92529297 C-189.50245117 282.71291016 -189.33229492 283.50052734 -189.15698242 284.31201172 C-186.28472978 297.22187065 -182.53073293 309.04794351 -176.67260742 320.92529297 C-176.4009375 321.5456543 -176.12926758 322.16601562 -175.84936523 322.80517578 C-173.26765748 328.46943706 -169.72413168 332.59422293 -165.42260742 337.05029297 C-164.79225586 337.72705078 -164.1619043 338.40380859 -163.51245117 339.10107422 C-145.85879482 357.6895474 -120.81808913 365.27528168 -95.67260742 365.92529297 C-84.29019504 366.17677055 -73.01841477 365.87501675 -61.67260742 364.92529297 C-61.67260742 364.26529297 -61.67260742 363.60529297 -61.67260742 362.92529297 C-44.60161669 360.63553134 -28.77637779 361.01540037 -11.67260742 362.92529297 C-11.67260742 363.58529297 -11.67260742 364.24529297 -11.67260742 364.92529297 C-10.99456055 364.97427734 -10.31651367 365.02326172 -9.61791992 365.07373047 C-3.17961401 365.5909351 3.02472235 366.51710418 9.32739258 367.92529297 C8.32739258 370.92529297 8.32739258 370.92529297 6.56835938 372.01269531 C5.43394409 372.50697021 5.43394409 372.50697021 4.27661133 373.01123047 C3.43864014 373.38223877 2.60066895 373.75324707 1.73730469 374.13549805 C0.83890869 374.51988037 -0.0594873 374.9042627 -0.98510742 375.30029297 C-1.89703857 375.69949951 -2.80896973 376.09870605 -3.74853516 376.51000977 C-6.38507843 377.66000385 -9.02759788 378.79493359 -11.67260742 379.92529297 C-13.45924805 380.69679688 -13.45924805 380.69679688 -15.28198242 381.48388672 C-20.76268233 383.8110093 -26.29659604 385.9394776 -31.90698242 387.93310547 C-34.04593529 388.70046992 -36.15888684 389.54052846 -38.25854492 390.40966797 C-43.5368426 392.39586999 -48.997126 393.17427002 -54.54760742 394.05029297 C-56.60794538 394.38350812 -58.66786664 394.71931351 -60.72729492 395.05810547 C-62.08056885 395.27297607 -62.08056885 395.27297607 -63.46118164 395.4921875 C-65.70241455 395.82895941 -65.70241455 395.82895941 -67.67260742 396.92529297 C-90.70681971 400.87483876 -116.64931588 400.64622898 -139.67260742 396.92529297 C-139.67260742 396.26529297 -139.67260742 395.60529297 -139.67260742 394.92529297 C-140.48084961 394.86470703 -141.2890918 394.80412109 -142.12182617 394.74169922 C-143.19045898 394.65791016 -144.2590918 394.57412109 -145.36010742 394.48779297 C-146.41584961 394.40658203 -147.4715918 394.32537109 -148.55932617 394.24169922 C-151.32347039 393.96077616 -153.96206483 393.52372445 -156.67260742 392.92529297 C-156.67260742 392.26529297 -156.67260742 391.60529297 -156.67260742 390.92529297 C-157.95135742 390.82216797 -159.23010742 390.71904297 -160.54760742 390.61279297 C-170.20975852 389.49385841 -177.55186963 386.16623971 -185.67260742 380.92529297 C-186.5259668 380.42513672 -187.37932617 379.92498047 -188.25854492 379.40966797 C-190.36456752 378.11470262 -192.13858367 376.80646531 -193.98510742 375.17529297 C-194.5806543 374.65193359 -195.17620117 374.12857422 -195.78979492 373.58935547 C-196.72178711 372.76564453 -196.72178711 372.76564453 -197.67260742 371.92529297 C-198.63553711 371.10158203 -198.63553711 371.10158203 -199.61791992 370.26123047 C-206.58507336 364.27767516 -212.98628468 357.87268342 -218.96948242 350.90576172 C-220.07035778 349.62561537 -221.18419667 348.35645444 -222.31323242 347.10107422 C-249.30976665 317.01381527 -249.30976665 317.01381527 -254.67260742 300.92529297 C-255.33260742 300.92529297 -255.99260742 300.92529297 -256.67260742 300.92529297 C-257.32364909 299.2976888 -257.97469076 297.67008464 -258.62573242 296.04248047 C-259.69734941 293.75544255 -259.69734941 293.75544255 -261.53198242 291.17529297 C-263.89794645 287.58317239 -265.79067086 283.90973319 -267.67260742 280.05029297 C-268.00260742 279.38126953 -268.33260742 278.71224609 -268.67260742 278.02294922 C-269.33932608 276.67128132 -270.00477243 275.3189851 -270.66894531 273.96606445 C-272.82232162 269.58755008 -274.98819229 265.21882083 -277.27026367 260.90576172 C-284.49536071 247.12991004 -287.0576085 232.70729218 -286.98510742 217.23779297 C-286.98309326 216.05403076 -286.9810791 214.87026855 -286.97900391 213.65063477 C-286.87207326 203.7982886 -286.16744175 194.04217596 -285.23510742 184.23779297 C-285.13415268 183.16907455 -285.13415268 183.16907455 -285.03115845 182.07876587 C-283.8802191 170.13290465 -283.8802191 170.13290465 -282.67260742 168.92529297 C-282.38639425 167.30877457 -282.15485241 165.68252632 -281.94604492 164.05419922 C-279.74922659 147.92331184 -276.26414941 132.53599571 -271.67260742 116.92529297 C-271.40826904 116.00723877 -271.14393066 115.08918457 -270.87158203 114.14331055 C-269.61093405 109.82366083 -268.29989611 105.68568262 -266.36010742 101.61279297 C-265.9347168 100.71173828 -265.50932617 99.81068359 -265.07104492 98.88232422 C-264.60956055 97.90650391 -264.14807617 96.93068359 -263.67260742 95.92529297 C-263.14924805 94.75353516 -262.62588867 93.58177734 -262.08666992 92.37451172 C-261.5581543 91.19501953 -261.02963867 90.01552734 -260.48510742 88.80029297 C-259.99655273 87.70458984 -259.50799805 86.60888672 -259.00463867 85.47998047 C-257.67260742 82.92529297 -257.67260742 82.92529297 -255.67260742 81.92529297 C-254.93390374 80.34405174 -254.25708901 78.73372534 -253.61010742 77.11279297 C-249.38203951 67.57190504 -242.66735722 59.85477934 -235.73510742 52.17529297 C-235.26250488 51.64943604 -234.78990234 51.1235791 -234.30297852 50.58178711 C-233.13629917 49.32130759 -231.90908313 48.11738237 -230.67260742 46.92529297 C-230.01260742 46.92529297 -229.35260742 46.92529297 -228.67260742 46.92529297 C-228.67260742 46.26529297 -228.67260742 45.60529297 -228.67260742 44.92529297 C-219.42173097 36.28996913 -208.7976202 29.47860368 -197.92260742 23.11279297 C-196.69767578 22.3918042 -196.69767578 22.3918042 -195.44799805 21.65625 C-189.90342856 18.45824586 -185.21657794 15.92529297 -178.67260742 15.92529297 C-178.67260742 15.26529297 -178.67260742 14.60529297 -178.67260742 13.92529297 C-170.23489365 9.42826969 -161.72446177 5.97906245 -152.67260742 2.92529297 C-151.90561523 2.63783203 -151.13862305 2.35037109 -150.34838867 2.05419922 C-144.84566664 0.03129379 -139.19604091 -1.00828011 -133.4309082 -1.98535156 C-129.35163628 -2.6894341 -125.58453624 -3.74044974 -121.67260742 -5.07470703 C-118.79760742 -5.19970703 -118.79760742 -5.19970703 -116.67260742 -5.07470703 C-116.67260742 -5.73470703 -116.67260742 -6.39470703 -116.67260742 -7.07470703 C-113.089915 -7.5587439 -109.50634818 -8.0359992 -105.92260742 -8.51220703 C-104.92616211 -8.64691406 -103.9297168 -8.78162109 -102.90307617 -8.92041016 C-69.26594875 -13.36919152 -31.77833768 -13.41295591 0 0 Z "
    fill="#FCC635"
    transform="translate(330.672607421875,61.07470703125)"
  />
  <path
    d="M0 0 C3.90064298 3.04440428 6.96765388 6.21546164 8.5625 11 C8.97661765 19.69647059 8.97661765 19.69647059 6.5625 23 C3.5625 25 3.5625 25 0.5625 25 C0.5625 26.65 0.5625 28.3 0.5625 30 C2.5425 30 4.5225 30 6.5625 30 C6.5625 30.66 6.5625 31.32 6.5625 32 C7.284375 32.103125 8.00625 32.20625 8.75 32.3125 C11.91857589 33.08704077 13.98486744 33.99517468 16.5625 36 C17.375 38.6875 17.375 38.6875 17.5625 41 C18.2225 41 18.8825 41 19.5625 41 C23.30316129 49.41648789 23.89053503 57.31013077 20.5625 66 C19.5725 66.495 19.5725 66.495 18.5625 67 C18.04042969 67.99386719 17.51835937 68.98773438 16.98046875 70.01171875 C14.17648592 75.10100609 10.02913605 78.81773864 5.875 82.8125 C4.32736795 84.316895 2.78169105 85.82330481 1.23828125 87.33203125 C0.55677002 87.98921143 -0.12474121 88.6463916 -0.8269043 89.32348633 C-2.52240597 90.92219225 -2.52240597 90.92219225 -3.4375 93 C-2.52871094 92.7834375 -2.52871094 92.7834375 -1.6015625 92.5625 C5.76251941 90.93107262 12.7599174 89.77774131 20.0625 92.125 C23.15704789 94.44591092 23.73598576 96.28068594 24.5625 100 C26.8725 100.33 29.1825 100.66 31.5625 101 C31.28535156 100.32453125 31.00820312 99.6490625 30.72265625 98.953125 C30.17931641 97.61507812 30.17931641 97.61507812 29.625 96.25 C29.26535156 95.36828125 28.90570313 94.4865625 28.53515625 93.578125 C26.53344804 88.2723924 26.36953592 83.55894797 26.375 77.9375 C26.37580566 77.08929688 26.37661133 76.24109375 26.37744141 75.3671875 C26.5264817 60.05402744 26.5264817 60.05402744 30.5625 54 C30.84996094 53.05253906 31.13742188 52.10507813 31.43359375 51.12890625 C34.20204824 43.45578499 41.16367312 37.41816344 48.34375 33.828125 C51.77353423 32.54799427 54.91374685 32.1990229 58.5625 32 C58.5625 31.34 58.5625 30.68 58.5625 30 C64.0075 29.505 64.0075 29.505 69.5625 29 C69.5625 27.68 69.5625 26.36 69.5625 25 C68.985 24.9175 68.4075 24.835 67.8125 24.75 C64.8923567 23.7766189 63.54462207 22.32386725 61.5625 20 C60.30752043 16.2350613 60.04185556 13.96991382 60.5625 10 C63.53581991 5.54818859 67.22959738 2.10588595 71.5625 -1 C76.23913539 0.97857651 80.3730487 3.94549321 82.9375 8.375 C84.12320683 13.35496868 84.19232614 17.30273561 81.8125 21.875 C79.5625 25 79.5625 25 77.3125 25.9375 C76.44625 25.9684375 76.44625 25.9684375 75.5625 26 C75.5625 27.32 75.5625 28.64 75.5625 30 C76.16835937 29.91878906 76.77421875 29.83757812 77.3984375 29.75390625 C83.96544357 29.25885502 88.01804613 30.57605301 93.2265625 34.6015625 C104.25668572 45.92680607 103.93623014 59.3130188 103.7734375 74.0390625 C103.50880681 84.49687517 101.85658972 94.02774078 94.5625 102 C91.99345211 104.21483068 89.38078289 106.2799918 86.63671875 108.2734375 C84.29966239 109.91046741 84.29966239 109.91046741 83.5625 113 C84.119375 113.20625 84.67625 113.4125 85.25 113.625 C91.63125828 117.41926168 93.75172767 123.30959281 95.8125 130.0625 C96.06773437 130.85205078 96.32296875 131.64160156 96.5859375 132.45507812 C98.41982574 138.212522 99.71207541 143.54931257 99.8125 149.625 C99.85117187 151.03652344 99.85117187 151.03652344 99.890625 152.4765625 C99.5625 155 99.5625 155 98.234375 156.8359375 C96.5625 158 96.5625 158 93.5625 158 C93.8925 164.6 94.2225 171.2 94.5625 178 C96.2125 178.66 97.8625 179.32 99.5625 180 C101.58805322 181.66745946 103.48318185 183.32158457 105.375 185.125 C105.87708984 185.59292969 106.37917969 186.06085938 106.89648438 186.54296875 C108.12439455 187.68901825 109.34428215 188.84365311 110.5625 190 C110.2325 190.66 109.9025 191.32 109.5625 192 C108.5725 192.33 107.5825 192.66 106.5625 193 C106.41554687 194.01320313 106.41554687 194.01320313 106.265625 195.046875 C104.78042619 203.90685413 104.78042619 203.90685413 100.5625 207 C99.9025 206.67 99.2425 206.34 98.5625 206 C98.93503906 205.55269531 99.30757812 205.10539063 99.69140625 204.64453125 C102.76131973 200.91057946 102.76131973 200.91057946 103.5 196.3125 C103.190625 195.549375 102.88125 194.78625 102.5625 194 C102.315 193.2575 102.0675 192.515 101.8125 191.75 C100.64267187 189.72821404 100.64267187 189.72821404 97.9375 189.25 C97.15375 189.1675 96.37 189.085 95.5625 189 C95.500625 190.051875 95.43875 191.10375 95.375 192.1875 C94.41014016 196.71491923 93.06064478 198.07132065 89.5625 201 C88.86125 201.598125 88.16 202.19625 87.4375 202.8125 C85.5625 204 85.5625 204 82.5625 204 C82.5625 204.66 82.5625 205.32 82.5625 206 C76.90676255 208.25456504 71.38934172 209.87039593 65.4375 211.125 C64.66535156 211.29386719 63.89320313 211.46273437 63.09765625 211.63671875 C60.92163359 212.10751071 58.74720251 212.57118143 56.5625 213 C55.72154785 213.17942139 54.8805957 213.35884277 54.01416016 213.54370117 C49.03938295 214.20135138 44.10671039 214.16271861 39.09375 214.16796875 C37.98124878 214.17129715 36.86874756 214.17462555 35.72253418 214.17805481 C33.36906343 214.18310973 31.01558554 214.18546358 28.66210938 214.18530273 C25.10274042 214.18747544 21.54368861 214.2056086 17.984375 214.22460938 C-4.40857631 214.28147149 -4.40857631 214.28147149 -15.4375 212 C-16.25299316 211.83266357 -17.06848633 211.66532715 -17.90869141 211.49291992 C-19.9495297 211.0398242 -21.97591456 210.52287172 -24 210 C-24.65806641 209.835 -25.31613281 209.67 -25.99414062 209.5 C-29.59644905 208.57503415 -33.02071627 207.46902026 -36.4375 206 C-36.4375 205.34 -36.4375 204.68 -36.4375 204 C-37.5203125 203.62875 -37.5203125 203.62875 -38.625 203.25 C-42.39859904 201.57284487 -45.3107453 199.55599458 -47.75 196.1875 C-48.72128195 193.09705745 -48.56112319 190.21420305 -48.4375 187 C-49.0975 187 -49.7575 187 -50.4375 187 C-50.7675 187.99 -51.0975 188.98 -51.4375 190 C-52.118125 190.556875 -52.79875 191.11375 -53.5 191.6875 C-56.37496503 195.11890987 -55.72998064 197.61279047 -55.4375 202 C-54.839375 202.268125 -54.24125 202.53625 -53.625 202.8125 C-51.4375 204 -51.4375 204 -50.03198242 205.44726562 C-32.09627157 222.91336898 8.48243144 220.74800555 31.59037781 220.4513855 C43.94886537 220.20621888 55.92841449 218.74390785 68.08203125 216.45751953 C71.23250799 215.87641782 74.38744495 215.42363796 77.5625 215 C77.5625 215.66 77.5625 216.32 77.5625 217 C48.17800465 229.37059533 1.8686694 225.91993009 -28.4375 218 C-28.4375 218.66 -28.4375 219.32 -28.4375 220 C-26.7875 220 -25.1375 220 -23.4375 220 C-23.4375 220.99 -23.4375 221.98 -23.4375 223 C-22.08205078 223.07347656 -22.08205078 223.07347656 -20.69921875 223.1484375 C-19.51972656 223.22320312 -18.34023437 223.29796875 -17.125 223.375 C-15.95324219 223.44460938 -14.78148437 223.51421875 -13.57421875 223.5859375 C-10.4375 224 -10.4375 224 -7.4375 226 C-15.36791378 225.84338501 -22.60893555 224.65628268 -30.25 222.625 C-31.03737549 222.41593018 -31.82475098 222.20686035 -32.63598633 221.99145508 C-46.12997666 218.27127535 -56.05401721 214.4156779 -63.4375 202 C-65.37160772 198.13178456 -65.37541371 194.17312238 -64.4375 190 C-61.10453873 185.37708509 -56.84008727 181.07459351 -51.4375 179 C-50.1175 179 -48.7975 179 -47.4375 179 C-47.48931808 175.72786715 -47.58437405 172.45838623 -47.6875 169.1875 C-47.70167969 168.25873047 -47.71585938 167.32996094 -47.73046875 166.37304688 C-47.76269531 165.48037109 -47.79492188 164.58769531 -47.828125 163.66796875 C-47.84907227 162.84578857 -47.87001953 162.0236084 -47.89160156 161.17651367 C-48.61851536 158.27828624 -50.04645127 157.67177591 -52.4375 156 C-54.55758155 144.72701466 -51.48162638 131.1886589 -45.390625 121.53515625 C-44.74609375 120.69855469 -44.1015625 119.86195313 -43.4375 119 C-42.7775 119 -42.1175 119 -41.4375 119 C-40.7775 117.68 -40.1175 116.36 -39.4375 115 C-38.7775 115 -38.1175 115 -37.4375 115 C-37.59734375 114.46117187 -37.7571875 113.92234375 -37.921875 113.3671875 C-39.16727479 107.64967029 -39.64149482 100.58146148 -36.9375 95.25 C-36.4425 94.5075 -35.9475 93.765 -35.4375 93 C-34.7775 93 -34.1175 93 -33.4375 93 C-33.210625 92.46375 -32.98375 91.9275 -32.75 91.375 C-29.5036533 85.50065836 -25.68034103 82.36320048 -20.12109375 78.84765625 C-16.73216607 76.51437708 -13.6279781 73.91856714 -10.5 71.25 C-9.93216797 70.76571533 -9.36433594 70.28143066 -8.77929688 69.7824707 C-6.6010282 67.90998733 -4.4692913 66.0317913 -2.4375 64 C-2.10416667 60.5 -2.10416667 60.5 -2.4375 57 C-4.40391297 54.60367307 -4.40391297 54.60367307 -8.125 54.6875 C-13.21845605 54.81691631 -17.51308717 56.37627667 -21.4375 59.6875 C-24.62042593 61.77629514 -26.7164323 61.5676205 -30.4375 61 C-33.58762988 59.54750821 -35.56620483 57.93205842 -37.4375 55 C-38.69852559 50.04499185 -38.83882902 45.38533436 -36.19140625 40.87890625 C-28.55818708 33.24568708 -15.87340621 30.00166064 -5.4375 29 C-5.4375 28.01 -5.4375 27.02 -5.4375 26 C-6.015 25.9175 -6.5925 25.835 -7.1875 25.75 C-10.1799478 24.7525174 -11.43718676 23.43159228 -13.4375 21 C-14.60080595 16.00420759 -14.59646522 11.01476787 -12.00390625 6.5078125 C-4.78847359 -1.96450198 -4.78847359 -1.96450198 0 0 Z M-2.4375 8 C-4.56248069 9.62280307 -4.56248069 9.62280307 -6.4375 12 C-6.77198259 15.167832 -6.77198259 15.167832 -6.4375 18 C-6.1075 17.01 -5.7775 16.02 -5.4375 15 C-2.7975 15.33 -0.1575 15.66 2.5625 16 C2.21200425 12.75791433 2.00028819 11.38472296 -0.5 9.1875 C-1.139375 8.795625 -1.77875 8.40375 -2.4375 8 Z M71.5625 8 C68.25959808 11.45201833 68.25959808 11.45201833 67.5625 16 C70.8625 16 74.1625 16 77.5625 16 C77.9892896 12.02400691 77.9892896 12.02400691 75.6875 9.75 C73.7639965 7.78809758 73.7639965 7.78809758 71.5625 8 Z M24.5625 108 C24.315 108.94875 24.0675 109.8975 23.8125 110.875 C21.5625 114 21.5625 114 19.44726562 114.72070312 C9.2731308 116.34477762 -0.90852904 116.45010081 -11.1875 116.625 C-13.05991229 116.66326544 -14.93230859 116.70232184 -16.8046875 116.7421875 C-21.34882549 116.83724004 -25.89304539 116.92160338 -30.4375 117 C-28.9525 117.99 -28.9525 117.99 -27.4375 119 C-25.890625 120.1446875 -25.890625 120.1446875 -24.3125 121.3125 C0.35384966 136.54363394 36.73158338 133.98098889 63.5625 128 C70.50719813 126.21607978 76.68253742 124.47112194 81.5625 119 C79.66533965 116.43325364 78.47085687 115.97708922 75.3125 115.1875 C71.60979196 114.79577272 71.60979196 114.79577272 68.375 115.9375 C57.95998891 118.84004408 50.54374705 116.75589475 41.3984375 111.7265625 C38.5625 110 38.5625 110 36.5625 108 C33.66366917 107.75660449 33.66366917 107.75660449 30.4375 107.875 C28.79394531 107.90207031 28.79394531 107.90207031 27.1171875 107.9296875 C26.27414063 107.95289063 25.43109375 107.97609375 24.5625 108 Z M-37.4375 124 C-40.40587781 128.02167317 -41.96139341 131.00088076 -42.4375 136 C-43.0975 136 -43.7575 136 -44.4375 136 C-46.10001802 141.57432514 -46.62359365 145.3067505 -45.4375 151 C-44.4475 151.33 -43.4575 151.66 -42.4375 152 C-42.334375 151.360625 -42.23125 150.72125 -42.125 150.0625 C-41.898125 149.381875 -41.67125 148.70125 -41.4375 148 C-37.85746227 146.80665409 -35.19434104 146.66456776 -31.4375 147 C-27.91944063 149.93171614 -27.85849459 153.62165627 -27.4375 158 C-26.7775 158 -26.1175 158 -25.4375 158 C-25.31375 159.2375 -25.19 160.475 -25.0625 161.75 C-24.68003695 164.8762197 -24.13200477 167.28879237 -22.4375 170 C-19.61679333 165.76893999 -18.36467654 161.14967049 -16.75390625 156.34765625 C-15.07672098 152.08252931 -13.90078565 149.66512984 -9.6875 147.75 C-5.35959652 146.75125304 -1.52400016 146.47837496 2.8125 147.5625 C5.58772807 149.84215163 6.32561977 152.66042338 7.5625 156 C8.2225 156 8.8825 156 9.5625 156 C10.5525 159.63 11.5425 163.26 12.5625 167 C13.8825 167.33 15.2025 167.66 16.5625 168 C16.99820313 167.37351562 17.43390625 166.74703125 17.8828125 166.1015625 C22.67607341 159.52379753 22.67607341 159.52379753 26.3125 157.375 C30.3275833 156.91172116 33.99162776 157.42970707 37.9921875 157.8984375 C40.74014855 158.18591881 40.74014855 158.18591881 43.75 156.6875 C44.348125 156.130625 44.94625 155.57375 45.5625 155 C45.5625 154.34 45.5625 153.68 45.5625 153 C49.5225 153 53.4825 153 57.5625 153 C58.0575 154.485 58.0575 154.485 58.5625 156 C59.325625 156.7425 60.08875 157.485 60.875 158.25 C63.09845476 160.52516301 64.24620613 162.03435749 65.6875 164.75 C67.23262048 168.25876776 67.23262048 168.25876776 70.5625 169 C72.68025686 164.65613592 74.44859813 160.89697726 75.0625 156.0625 C75.2275 155.051875 75.3925 154.04125 75.5625 153 C77.4375 151.6875 77.4375 151.6875 79.5625 151 C80.5525 150.34 81.5425 149.68 82.5625 149 C85.04296875 149.0234375 85.04296875 149.0234375 87.75 149.375 C89.10158203 149.54128906 89.10158203 149.54128906 90.48046875 149.7109375 C91.16753906 149.80632812 91.85460937 149.90171875 92.5625 150 C92.13543819 147.47700364 91.69620614 144.95712176 91.25 142.4375 C91.13205078 141.73302734 91.01410156 141.02855469 90.89257812 140.30273438 C90.02865613 135.49578378 88.63775594 131.42372484 86.5625 127 C85.37914062 127.48210937 84.19578125 127.96421875 82.9765625 128.4609375 C74.90175344 131.70435044 67.22468899 134.74258547 58.5625 136 C58.5625 136.66 58.5625 137.32 58.5625 138 C37.73243195 139.91150911 17.36248738 140.50628066 -3.4375 138 C-3.4375 137.34 -3.4375 136.68 -3.4375 136 C-4.20191406 135.85304687 -4.96632812 135.70609375 -5.75390625 135.5546875 C-16.97811411 133.20449235 -27.21894516 129.24188462 -37.4375 124 Z "
    fill="#2B1F13"
    transform="translate(128.4375,102)"
  />
  <path
    d="M0 0 C2.4453125 0.3515625 2.4453125 0.3515625 4.6328125 2.7890625 C6.73841567 6.92766183 7.67687272 10.80159012 8.4453125 15.3515625 C9.1053125 15.3515625 9.7653125 15.3515625 10.4453125 15.3515625 C11.4353125 17.3315625 12.4253125 19.3115625 13.4453125 21.3515625 C19.8268868 22.00906799 19.8268868 22.00906799 25.3203125 19.1015625 C26.57633016 17.47612788 27.81384992 15.83561011 29.0078125 14.1640625 C30.6816946 12.0535155 31.89379207 11.20206931 34.4453125 10.3515625 C35.78917338 10.63953269 37.1210838 10.98372119 38.4453125 11.3515625 C43.54661442 12.01543054 43.54661442 12.01543054 48.12109375 10.234375 C48.61996094 9.77804687 49.11882812 9.32171875 49.6328125 8.8515625 C52.4453125 6.3515625 52.4453125 6.3515625 55.1328125 5.9140625 C57.4453125 6.3515625 57.4453125 6.3515625 60.4453125 8.3515625 C61.1328125 11.4765625 61.1328125 11.4765625 61.4453125 14.3515625 C62.1053125 14.3515625 62.7653125 14.3515625 63.4453125 14.3515625 C64.79450782 16.00541483 66.12664978 17.6732645 67.4453125 19.3515625 C70.47075584 21.36852472 71.05598632 21.60967346 74.4453125 21.5390625 C75.1259375 21.53261719 75.8065625 21.52617187 76.5078125 21.51953125 C78.66289459 21.40853996 78.66289459 21.40853996 81.4453125 20.3515625 C82.42555556 17.6116481 82.42555556 17.6116481 82.90625 15.5390625 C83.53989279 12.96775842 84.30015244 10.44767317 85.0703125 7.9140625 C85.33070313 7.04910156 85.59109375 6.18414062 85.859375 5.29296875 C86.05273438 4.65230469 86.24609375 4.01164062 86.4453125 3.3515625 C88.9203125 2.8565625 88.9203125 2.8565625 91.4453125 2.3515625 C93.17572092 7.54278777 92.63123032 13.11297654 92.63061523 18.54785156 C92.6327976 20.71178983 92.65095372 22.87521466 92.66992188 25.0390625 C92.67285695 26.42187326 92.67484098 27.80468644 92.67578125 29.1875 C92.67989014 30.44095215 92.68399902 31.6944043 92.68823242 32.98583984 C92.37027106 37.39128239 91.58379532 40.21307968 88.4453125 43.3515625 C87.4553125 44.0115625 86.4653125 44.6715625 85.4453125 45.3515625 C84.548125 45.95484375 84.548125 45.95484375 83.6328125 46.5703125 C70.38133274 54.3318935 51.56478488 55.53797402 36.4765625 55.44921875 C35.09519104 55.44709633 35.09519104 55.44709633 33.68591309 55.44493103 C30.77234516 55.43937657 27.85885682 55.42683275 24.9453125 55.4140625 C22.95833445 55.40904161 20.97135519 55.40447973 18.984375 55.40039062 C14.13799062 55.3894221 9.29166501 55.37218933 4.4453125 55.3515625 C4.4453125 54.6915625 4.4453125 54.0315625 4.4453125 53.3515625 C3.51332031 53.31417969 2.58132812 53.27679688 1.62109375 53.23828125 C-7.06808897 52.79020408 -15.11393314 51.61476645 -23.5546875 49.3515625 C-23.5546875 48.6915625 -23.5546875 48.0315625 -23.5546875 47.3515625 C-24.15796875 47.26519531 -24.76125 47.17882812 -25.3828125 47.08984375 C-31.95731111 45.93400448 -31.95731111 45.93400448 -35.0546875 42.9140625 C-37.60671879 38.55434237 -37.67267919 35.25952637 -37.65234375 30.27734375 C-37.6509288 29.5935112 -37.64951385 28.90967865 -37.64805603 28.2051239 C-37.64246626 26.02472528 -37.62991572 23.84442999 -37.6171875 21.6640625 C-37.61217117 20.18424628 -37.6076085 18.70442844 -37.60351562 17.22460938 C-37.59250021 13.60022693 -37.57524262 9.9759048 -37.5546875 6.3515625 C-36.2346875 6.0215625 -34.9146875 5.6915625 -33.5546875 5.3515625 C-33.2246875 4.0315625 -32.8946875 2.7115625 -32.5546875 1.3515625 C-31.8946875 1.3515625 -31.2346875 1.3515625 -30.5546875 1.3515625 C-28.25855994 10.76158528 -28.25855994 10.76158528 -28.5546875 15.3515625 C-27.8946875 15.3515625 -27.2346875 15.3515625 -26.5546875 15.3515625 C-26.2246875 17.6615625 -25.8946875 19.9715625 -25.5546875 22.3515625 C-24.8946875 22.3515625 -24.2346875 22.3515625 -23.5546875 22.3515625 C-22.8946875 23.3415625 -22.2346875 24.3315625 -21.5546875 25.3515625 C-18.59722258 25.93501726 -18.59722258 25.93501726 -15.5546875 25.3515625 C-12.61468565 22.30240217 -11.78999716 19.13969653 -10.7421875 15.1015625 C-6.54767492 0.90105618 -6.54767492 0.90105618 0 0 Z "
    fill="#EAC151"
    transform="translate(124.5546875,254.6484375)"
  />
  <path
    d="M0 0 C1.4606285 2.64738916 2 3.89448334 2 7 C2.66 7 3.32 7 4 7 C4.99 8.485 4.99 8.485 6 10 C9.07921132 10.25660094 11.21136993 10.39431504 14 9 C14 9.66 14 10.32 14 11 C14.556875 10.97679687 15.11375 10.95359375 15.6875 10.9296875 C20.37709498 10.81878492 24.36861515 11.19458525 28.87475586 12.46679688 C36.71276246 14.43327665 44.91871435 14.15671943 52.9375 14.125 C54.70927612 14.12209961 54.70927612 14.12209961 56.5168457 14.11914062 C66.03733718 14.07255718 75.50622659 13.69496903 85 13 C85 12.34 85 11.68 85 11 C89.85729645 10.02700844 94.4500625 9.87961195 99.375 9.9375 C100.11105469 9.94201172 100.84710938 9.94652344 101.60546875 9.95117188 C103.40368158 9.96284858 105.20185197 9.98077989 107 10 C107.33 9.34 107.66 8.68 108 8 C109.97746603 7.26919734 111.98072489 6.60578253 114 6 C114.99 5.67 115.98 5.34 117 5 C117.495 7.97 117.495 7.97 118 11 C109.17999875 14.99364219 100.25981934 17.86807531 90.94677734 20.45068359 C89.11912195 20.96638771 87.30310583 21.52284726 85.48828125 22.08203125 C78.87801195 23.8215758 72.29460357 24.16883306 65.49609375 24.23828125 C64.30628403 24.25256416 64.30628403 24.25256416 63.09243774 24.26713562 C60.54075494 24.29150543 57.98928335 24.30411238 55.4375 24.3125 C54.57115936 24.31644775 53.70481873 24.32039551 52.81222534 24.32446289 C38.81181251 24.35427893 25.66427523 23.26659301 12 20 C12 19.34 12 18.68 12 18 C11.113125 18.061875 10.22625 18.12375 9.3125 18.1875 C5.63527631 17.97935526 3.90037545 17.21793417 1 15 C1 14.34 1 13.68 1 13 C0.071875 13.061875 -0.85625 13.12375 -1.8125 13.1875 C-5 13 -5 13 -6.875 11.875 C-8.4682099 9.21965017 -8.20214032 7.03210482 -8 4 C-6.00045254 3.95745644 -3.99958364 3.95919217 -2 4 C-1.67 4.33 -1.34 4.66 -1 5 C-0.67 3.35 -0.34 1.7 0 0 Z "
    fill="#3C2B1D"
    transform="translate(128.4375,102)"
    opacity="0"
  />
  <path
    d="M0 0 C0.86825912 0.00222061 1.73651825 0.00444122 2.63108826 0.00672913 C3.61202957 0.00680466 4.59297089 0.00688019 5.6036377 0.00695801 C6.6702916 0.01211929 7.7369455 0.01728058 8.83592224 0.02259827 C10.46520912 0.02472069 10.46520912 0.02472069 12.12741089 0.02688599 C15.61230674 0.03250403 19.09713941 0.04505959 22.58201599 0.05775452 C24.93813486 0.06276719 27.29425473 0.0673305 29.65037537 0.07142639 C35.44011063 0.08247933 41.2298088 0.09923501 47.01951599 0.12025452 C47.01951599 0.78025452 47.01951599 1.44025452 47.01951599 2.12025452 C48.09588318 2.07900452 49.17225037 2.03775452 50.28123474 1.99525452 C55.9188779 2.00513862 61.31270092 3.0478185 66.83201599 4.12025452 C67.95043884 4.33593079 69.06886169 4.55160706 70.22117615 4.77381897 C100.28678727 10.84753207 100.28678727 10.84753207 112.01951599 17.12025452 C112.01951599 17.78025452 112.01951599 18.44025452 112.01951599 19.12025452 C113.17451599 19.28525452 114.32951599 19.45025452 115.51951599 19.62025452 C125.80682329 21.8863967 136.48599348 28.07567607 145.01951599 34.12025452 C145.01951599 34.78025452 145.01951599 35.44025452 145.01951599 36.12025452 C145.72076599 36.36775452 146.42201599 36.61525452 147.14451599 36.87025452 C152.7649559 39.31392404 157.501861 43.03285238 162.01951599 47.12025452 C162.01951599 47.78025452 162.01951599 48.44025452 162.01951599 49.12025452 C162.65889099 49.36775452 163.29826599 49.61525452 163.95701599 49.87025452 C166.01951599 51.12025452 166.01951599 51.12025452 166.76951599 53.24525452 C166.85201599 53.86400452 166.93451599 54.48275452 167.01951599 55.12025452 C167.61248474 55.20146545 168.20545349 55.28267639 168.81639099 55.36634827 C171.69509548 56.35143686 172.54413985 57.71232959 174.26951599 60.18275452 C174.79029724 60.91623108 175.31107849 61.64970764 175.84764099 62.40541077 C176.23435974 62.9713092 176.62107849 63.53720764 177.01951599 64.12025452 C180.9900531 63.52539065 183.90917872 62.28011587 187.39451599 60.30775452 C188.34842224 59.77021545 189.30232849 59.23267639 190.28514099 58.67884827 C191.18748474 58.16451233 192.08982849 57.65017639 193.01951599 57.12025452 C193.75685974 56.71935608 194.49420349 56.31845764 195.25389099 55.90541077 C198.74078315 54.14499334 198.74078315 54.14499334 201.01951599 51.12025452 C203.05076599 50.08509827 203.05076599 50.08509827 205.51951599 49.05775452 C208.49972831 47.94236595 208.49972831 47.94236595 211.01951599 46.12025452 C214.01951599 45.99525452 214.01951599 45.99525452 217.01951599 46.12025452 C218.01951599 47.12025452 218.01951599 47.12025452 218.18699646 50.66859436 C218.12830902 55.05843895 217.35784787 59.09007043 216.33982849 63.34681702 C216.16700348 64.09812897 215.99417847 64.84944092 215.81611633 65.6235199 C215.45196843 67.19922797 215.08367825 68.77398407 214.71141052 70.34779358 C214.14484104 72.74387984 213.59085914 75.14260613 213.03904724 77.54212952 C212.68170236 79.08136122 212.32365336 80.62042966 211.96482849 82.15931702 C211.717827 83.22359421 211.717827 83.22359421 211.46583557 84.30937195 C210.51219763 88.32888776 209.34787469 92.21089521 208.01951599 96.12025452 C207.46429105 98.65463059 206.94470408 101.1970204 206.45701599 103.74525452 C204.90867534 111.7837899 204.90867534 111.7837899 204.01951599 115.12025452 C203.35951599 115.12025452 202.69951599 115.12025452 202.01951599 115.12025452 C202.81575378 106.36163889 204.44149212 97.76464944 206.01951599 89.12025452 C206.67951599 89.12025452 207.33951599 89.12025452 208.01951599 89.12025452 C208.01951599 87.47025452 208.01951599 85.82025452 208.01951599 84.12025452 C208.67951599 84.12025452 209.33951599 84.12025452 210.01951599 84.12025452 C210.34951599 78.84025452 210.67951599 73.56025452 211.01951599 68.12025452 C211.67951599 68.12025452 212.33951599 68.12025452 213.01951599 68.12025452 C213.01951599 65.15025452 213.01951599 62.18025452 213.01951599 59.12025452 C213.67951599 59.12025452 214.33951599 59.12025452 215.01951599 59.12025452 C215.01951599 57.80025452 215.01951599 56.48025452 215.01951599 55.12025452 C208.1316771 61.21555964 206.80689034 70.88526276 205.51170349 79.64759827 C205.01951599 82.12025452 205.01951599 82.12025452 204.08592224 84.33509827 C202.54177098 88.3679915 201.87350081 92.50945425 201.08201599 96.74525452 C197.17427088 116.96549963 197.17427088 116.96549963 195.01951599 119.12025452 C183.19352236 119.24964176 174.79791167 112.24329558 166.01951599 105.12025452 C165.30537537 104.38677795 164.59123474 103.65330139 163.85545349 102.89759827 C162.03675571 100.86441602 162.03675571 100.86441602 158.89451599 100.18275452 C156.01951599 99.12025452 156.01951599 99.12025452 154.83201599 96.62025452 C154.42982849 95.38275452 154.42982849 95.38275452 154.01951599 94.12025452 C153.02951599 93.46025452 152.03951599 92.80025452 151.01951599 92.12025452 C151.01951599 91.46025452 151.01951599 90.80025452 151.01951599 90.12025452 C150.35951599 90.12025452 149.69951599 90.12025452 149.01951599 90.12025452 C149.01951599 89.13025452 149.01951599 88.14025452 149.01951599 87.12025452 C147.36951599 87.12025452 145.71951599 87.12025452 144.01951599 87.12025452 C144.01951599 86.46025452 144.01951599 85.80025452 144.01951599 85.12025452 C145.47357849 84.53244202 145.47357849 84.53244202 146.95701599 83.93275452 C150.82465178 82.29432632 154.39397456 80.24797925 158.00389099 78.10853577 C160.01951599 77.12025452 160.01951599 77.12025452 163.01951599 77.12025452 C157.58378059 61.37055965 137.95838665 50.71057495 124.01951599 43.12025452 C121.70591859 42.05830315 119.37758253 41.0821768 117.01951599 40.12025452 C117.01951599 39.46025452 117.01951599 38.80025452 117.01951599 38.12025452 C115.76139099 37.89337952 114.50326599 37.66650452 113.20701599 37.43275452 C109.47124681 36.61228185 106.27421986 35.40507092 102.83201599 33.74525452 C97.40269333 31.14562121 91.89846082 29.54098305 86.08592224 28.01478577 C83.01951599 27.12025452 83.01951599 27.12025452 80.94139099 26.06947327 C78.54958469 24.8881543 76.3380371 24.53704994 73.70701599 24.12025452 C70.66036806 23.63348623 67.81914282 23.05924981 64.86326599 22.15931702 C39.75762725 15.37263012 12.18830054 17.16384295 -13.27735901 20.46400452 C-17.89684119 21.048672 -22.32829947 21.25510045 -26.98048401 21.12025452 C-26.98048401 21.78025452 -26.98048401 22.44025452 -26.98048401 23.12025452 C-30.12580757 23.91395549 -33.27183516 24.7048318 -36.41798401 25.49525452 C-37.2964801 25.71697327 -38.1749762 25.93869202 -39.08009338 26.16712952 C-43.28142076 27.22133712 -47.48313171 28.24563951 -51.71485901 29.17103577 C-63.01561629 31.64928297 -74.73530747 34.71060031 -84.69532776 40.77259827 C-86.98048401 42.12025452 -86.98048401 42.12025452 -88.98048401 42.12025452 C-88.98048401 42.78025452 -88.98048401 43.44025452 -88.98048401 44.12025452 C-89.71984192 44.33867004 -90.45919983 44.55708557 -91.22096252 44.78211975 C-98.71135328 47.11799921 -105.21644005 50.12559056 -111.91798401 54.18275452 C-112.86584778 54.74768616 -113.81371155 55.3126178 -114.79029846 55.89466858 C-121.62390426 60.06140186 -127.73590189 64.66029276 -133.61720276 70.07337952 C-135.98048401 72.12025452 -135.98048401 72.12025452 -138.98048401 73.12025452 C-138.98048401 73.78025452 -138.98048401 74.44025452 -138.98048401 75.12025452 C-140.02384129 76.06234477 -141.11903128 76.94705637 -142.23048401 77.80775452 C-151.47439779 85.68403043 -159.25517121 95.94552831 -163.98048401 107.12025452 C-164.63885067 108.45770566 -165.30304816 109.79236036 -165.98048401 111.12025452 C-166.64048401 111.12025452 -167.30048401 111.12025452 -167.98048401 111.12025452 C-168.25376526 111.99294983 -168.52704651 112.86564514 -168.80860901 113.76478577 C-169.91630148 116.93647853 -171.23772979 119.80218218 -172.73048401 122.80775452 C-176.31533995 130.49953279 -178.83256756 138.40424592 -181.22169495 146.5372467 C-181.72817936 148.26137961 -182.24187798 149.98340939 -182.76271057 151.70326233 C-187.06643927 165.96902969 -189.65278614 180.20160692 -191.59498596 194.96913147 C-191.98048401 197.12025452 -191.98048401 197.12025452 -192.98048401 198.12025452 C-193.68872863 202.8672274 -194.09167593 207.65515569 -194.54298401 212.43275452 C-194.61085114 213.14644196 -194.67871826 213.86012939 -194.74864197 214.59544373 C-195.70621396 224.88233439 -196.27539625 235.09607904 -196.29298401 245.43275452 C-196.29822083 246.55013 -196.30345764 247.66750549 -196.30885315 248.81874084 C-196.17455798 264.52889871 -192.2693015 278.29545514 -184.98048401 292.12025452 C-183.85138574 294.38905291 -182.726523 296.65996315 -181.60548401 298.93275452 C-179.03562716 304.06675742 -176.41428041 309.16986423 -173.73048401 314.24525452 C-173.40128967 314.87278625 -173.07209534 315.50031799 -172.73292542 316.14686584 C-171.37932662 318.68771673 -170.04175361 321.04325353 -168.24610901 323.29994202 C-166.98048401 325.12025452 -166.98048401 325.12025452 -166.98048401 329.12025452 C-166.32048401 329.12025452 -165.66048401 329.12025452 -164.98048401 329.12025452 C-163.56000033 331.13464733 -162.26104507 333.14384222 -160.98048401 335.24525452 C-154.7320373 345.23021599 -147.93948978 354.80865845 -140.62110901 364.04212952 C-139.48887821 365.47628853 -138.37530624 366.92530752 -137.27735901 368.38587952 C-133.7904684 373.00365356 -130.10305063 377.12153376 -125.95314026 381.15150452 C-124.00891424 383.09188058 -122.2081479 385.10023723 -120.41798401 387.18275452 C-114.11120506 394.50471304 -114.11120506 394.50471304 -106.54298401 400.43275452 C-105.69735901 400.98962952 -104.85173401 401.54650452 -103.98048401 402.12025452 C-103.98048401 402.78025452 -103.98048401 403.44025452 -103.98048401 404.12025452 C-103.41458557 404.39095764 -102.84868713 404.66166077 -102.26564026 404.94056702 C-99.88607808 406.16899057 -97.67728365 407.5585335 -95.41798401 408.99525452 C-86.55858446 414.32645981 -76.98913602 416.81459646 -66.98048401 419.12025452 C-66.98048401 419.78025452 -66.98048401 420.44025452 -66.98048401 421.12025452 C-66.25603088 421.18084045 -65.53157776 421.24142639 -64.78517151 421.30384827 C-59.80931868 421.73508885 -54.8936801 422.19073093 -49.98048401 423.12025452 C-49.98048401 423.78025452 -49.98048401 424.44025452 -49.98048401 425.12025452 C-24.98157889 427.14036806 3.42613821 429.0450185 27.89671326 422.64222717 C31.01641376 421.87512888 34.16789044 421.31246471 37.32566833 420.72596741 C44.34026888 419.41331311 51.05981086 418.13145382 57.60154724 415.19056702 C65.79975371 411.56163556 74.50359043 408.90995427 83.01951599 406.12025452 C83.01951599 407.11025452 83.01951599 408.10025452 83.01951599 409.12025452 C83.55576599 408.79025452 84.09201599 408.46025452 84.64451599 408.12025452 C87.55862209 406.89326247 89.88819307 406.97792166 93.01951599 407.12025452 C93.01951599 408.77025452 93.01951599 410.42025452 93.01951599 412.12025452 C94.66951599 412.12025452 96.31951599 412.12025452 98.01951599 412.12025452 C98.01951599 412.78025452 98.01951599 413.44025452 98.01951599 414.12025452 C103.46451599 412.14025452 103.46451599 412.14025452 109.01951599 410.12025452 C107.73660402 413.96899042 106.56334456 414.27130048 103.01951599 416.12025452 C101.38150183 416.84098075 99.74150562 417.55804495 98.08592224 418.23744202 C96.55566783 418.8911991 95.04504296 419.59132679 93.54685974 420.31556702 C86.85152282 423.53318217 80.27723369 425.56231512 73.01951599 427.12025452 C73.01951599 427.78025452 73.01951599 428.44025452 73.01951599 429.12025452 C69.5333458 430.64545398 66.04922735 431.67668723 62.35154724 432.56166077 C59.77514151 433.17878978 57.21110591 433.83851989 54.64451599 434.49525452 C52.43653034 435.0383367 50.22816276 435.57986732 48.01951599 436.12025452 C46.7575238 436.44252014 45.49553162 436.76478577 44.19529724 437.09681702 C1.44179552 447.64113064 -46.94452537 446.29524214 -88.60548401 431.99525452 C-89.66340149 431.63306824 -89.66340149 431.63306824 -90.74269104 431.26356506 C-94.19938311 430.00779686 -96.5182014 428.82949172 -98.98048401 426.12025452 C-100.47731289 425.34300209 -102.00185188 424.61797699 -103.54298401 423.93275452 C-109.30081253 421.1469816 -114.37413289 417.56840772 -118.98048401 413.12025452 C-119.47548401 411.63525452 -119.47548401 411.63525452 -119.98048401 410.12025452 C-121.30809961 409.76483125 -122.64250498 409.4344217 -123.98048401 409.12025452 C-125.71974182 407.75331116 -125.71974182 407.75331116 -127.43360901 406.03041077 C-128.36173401 405.10131897 -128.36173401 405.10131897 -129.30860901 404.15345764 C-129.94282776 403.50312561 -130.57704651 402.85279358 -131.23048401 402.18275452 C-131.88017151 401.53628967 -132.52985901 400.88982483 -133.19923401 400.22377014 C-137.98048401 395.38727461 -137.98048401 395.38727461 -137.98048401 393.12025452 C-138.53606995 392.92173889 -139.09165588 392.72322327 -139.66407776 392.51869202 C-142.91026328 390.55893752 -144.83408346 387.75227356 -147.04298401 384.74525452 C-147.69363831 383.87900452 -147.69363831 383.87900452 -148.35743713 382.99525452 C-149.57221438 381.37555153 -150.77666727 379.74812023 -151.98048401 378.12025452 C-152.57731995 377.36486389 -153.17415588 376.60947327 -153.78907776 375.83119202 C-154.98048401 374.12025452 -154.98048401 374.12025452 -154.98048401 372.12025452 C-155.56700745 371.87791077 -156.15353088 371.63556702 -156.75782776 371.38587952 C-162.55820342 368.0830294 -166.29684799 361.02425376 -168.98048401 355.12025452 C-170.44509811 352.44574182 -171.68784478 350.3940138 -173.91798401 348.30775452 C-176.17706267 345.911762 -177.38139867 343.43339822 -178.77345276 340.47181702 C-180.70127355 336.71599786 -183.06425115 333.24933073 -185.39454651 329.73353577 C-186.98048401 327.12025452 -186.98048401 327.12025452 -188.06642151 324.35072327 C-188.76246791 321.9550781 -188.76246791 321.9550781 -190.98048401 321.12025452 C-192.16407776 319.08119202 -192.16407776 319.08119202 -193.41798401 316.49525452 C-193.82919495 315.65736389 -194.24040588 314.81947327 -194.66407776 313.95619202 C-196.17297034 310.70558071 -197.5765606 307.41750975 -198.98048401 304.12025452 C-199.49868713 302.95365295 -200.01689026 301.78705139 -200.55079651 300.58509827 C-201.06384338 299.42107483 -201.57689026 298.25705139 -202.10548401 297.05775452 C-202.62368713 295.89115295 -203.14189026 294.72455139 -203.67579651 293.52259827 C-204.89581953 290.34104122 -205.55985582 287.49040968 -205.98048401 284.12025452 C-206.64048401 284.12025452 -207.30048401 284.12025452 -207.98048401 284.12025452 C-213.41183187 271.70574512 -214.51907446 258.20638186 -214.41798401 244.80775452 C-214.41627197 244.1191333 -214.41455994 243.43051208 -214.41279602 242.72102356 C-214.32649804 222.11576542 -211.96609258 201.32723631 -207.98048401 181.12025452 C-207.32048401 181.12025452 -206.66048401 181.12025452 -205.98048401 181.12025452 C-205.97790588 180.46025452 -205.97532776 179.80025452 -205.97267151 179.12025452 C-205.18802147 159.03321353 -198.19895798 138.32552905 -189.98048401 120.12025452 C-189.19064739 118.32892898 -188.40161441 116.53724893 -187.61329651 114.74525452 C-186.7778324 112.87004354 -185.94188951 110.9950458 -185.10548401 109.12025452 C-184.6968512 108.18697327 -184.28821838 107.25369202 -183.86720276 106.29212952 C-181.1598011 100.25318998 -178.26308309 94.22346196 -173.98048401 89.12025452 C-173.32048401 89.12025452 -172.66048401 89.12025452 -171.98048401 89.12025452 C-171.64017151 87.84794983 -171.64017151 87.84794983 -171.29298401 86.54994202 C-169.74649061 82.50880749 -167.64522127 79.61043701 -164.98048401 76.24525452 C-164.3037262 75.35580139 -164.3037262 75.35580139 -163.61329651 74.44837952 C-162.45595803 72.96232952 -161.22348669 71.53542987 -159.98048401 70.12025452 C-159.32048401 70.12025452 -158.66048401 70.12025452 -157.98048401 70.12025452 C-157.48548401 68.63525452 -157.48548401 68.63525452 -156.98048401 67.12025452 C-156.32048401 67.12025452 -155.66048401 67.12025452 -154.98048401 67.12025452 C-154.48548401 65.63525452 -154.48548401 65.63525452 -153.98048401 64.12025452 C-152.30860901 62.43666077 -152.30860901 62.43666077 -150.23048401 60.68275452 C-149.50989807 60.07044983 -148.78931213 59.45814514 -148.04689026 58.82728577 C-145.71216874 56.89860277 -143.345162 55.01199691 -140.98048401 53.12025452 C-140.55380432 52.66779358 -140.12712463 52.21533264 -139.68751526 51.74916077 C-133.96965715 46.29298953 -121.15102678 36.12025452 -112.98048401 36.12025452 C-112.98048401 35.46025452 -112.98048401 34.80025452 -112.98048401 34.12025452 C-107.50585659 30.78787261 -101.95898897 28.40371127 -95.98048401 26.12025452 C-94.90798401 25.69357483 -93.83548401 25.26689514 -92.73048401 24.82728577 C-86.8601914 22.51042259 -81.1524758 20.45146843 -74.98048401 19.12025452 C-74.98048401 18.46025452 -74.98048401 17.80025452 -74.98048401 17.12025452 C-70.0725136 15.65447143 -65.15986537 14.20636688 -60.24073792 12.77845764 C-58.31216599 12.21684283 -56.38626799 11.6460593 -54.46095276 11.07337952 C-38.47391738 6.53224257 -21.88702395 3.90643921 -5.45167542 1.57191467 C-2.95043047 1.11476163 -2.4141251 0.1465851 0 0 Z M86.01951599 408.12025452 C87.01951599 410.12025452 87.01951599 410.12025452 87.01951599 410.12025452 Z "
    fill="#121010"
    transform="translate(240.98048400878906,32.87974548339844)"
  />
</svg>
